<?xml version="1.0" encoding="UTF-8" standalone="no"?><!DOCTYPE svg PUBLIC "-//W3C//DTD SVG 1.1//EN" "http://www.w3.org/Graphics/SVG/1.1/DTD/svg11.dtd"><svg width="100%" height="100%" viewBox="0 0 230 90" version="1.1" xmlns="http://www.w3.org/2000/svg" xmlns:xlink="http://www.w3.org/1999/xlink" xml:space="preserve" xmlns:serif="http://www.serif.com/" style="fill-rule:evenodd;clip-rule:evenodd;stroke-linecap:round;stroke-linejoin:round;stroke-miterlimit:1.5;"><g id="レイヤー1"><path d="M80,20c-0,-5.523 -4.477,-10 -10,-10l-50,0c-5.523,0 -10,4.477 -10,10l0,50c0,5.523 4.477,10 10,10l50,0c5.523,-0 10,-4.477 10,-10l0,-50Z" style="fill:#0000e0;stroke:#0000e0;stroke-width:15px;"/></g><g id="レイヤー11" serif:id="レイヤー1"><path d="M80,20c-0,-5.523 -4.477,-10 -10,-10l-50,0c-5.523,0 -10,4.477 -10,10l0,50c0,5.523 4.477,10 10,10l50,0c5.523,-0 10,-4.477 10,-10l0,-50Z" style="fill:#0000e0;stroke:#fff;stroke-width:4px;"/></g><g id="レイヤー2"><text x="24.185px" y="66.475px" style="font-family:'Arial-BoldMT', 'Arial', sans-serif;font-weight:700;font-size:60px;fill:#fff;">P</text></g><g id="レイヤー3"><g><g transform="matrix(1,0,0,1,65.6475,3.61857)"><g transform="matrix(0.8,0,0,1,7.42857,0)"><text x="37.143px" y="36.071px" style="font-family:'KintoSans-Bold', 'Kinto Sans';font-weight:700;font-size:36px;stroke:#000;stroke-width:5.52px;stroke-linecap:butt;stroke-miterlimit:2;">ア<tspan x="69.309px 103.725px " y="36.071px 36.071px ">クセ</tspan>ス</text></g><g transform="matrix(0.8,0,0,1,7.42857,0)"><text x="37.143px" y="72.071px" style="font-family:'KintoSans-Bold', 'Kinto Sans';font-weight:700;font-size:36px;stroke:#000;stroke-width:5.52px;stroke-linecap:butt;stroke-miterlimit:2;">・駐車場</text></g></g></g></g><g id="レイヤー31" serif:id="レイヤー3"><g><g transform="matrix(1,0,0,1,65.6475,3.61857)"><g transform="matrix(0.8,0,0,1,7.42857,0)"><text x="37.143px" y="36.071px" style="font-family:'KintoSans-Bold', 'Kinto Sans';font-weight:700;font-size:36px;fill:#fff;">ア<tspan x="69.309px 103.725px " y="36.071px 36.071px ">クセ</tspan>ス</text></g><g transform="matrix(0.8,0,0,1,7.42857,0)"><text x="37.143px" y="72.071px" style="font-family:'KintoSans-Bold', 'Kinto Sans';font-weight:700;font-size:36px;fill:#fff;">・駐車場</text></g></g></g></g></svg>