<?xml version="1.0" encoding="UTF-8" standalone="no"?>
<!DOCTYPE svg PUBLIC "-//W3C//DTD SVG 1.1//EN" "http://www.w3.org/Graphics/SVG/1.1/DTD/svg11.dtd">
<svg width="100%" height="100%" viewBox="0 0 230 90" version="1.1" xmlns="http://www.w3.org/2000/svg" xmlns:xlink="http://www.w3.org/1999/xlink" xml:space="preserve" xmlns:serif="http://www.serif.com/" style="fill-rule:evenodd;clip-rule:evenodd;stroke-linecap:round;stroke-linejoin:round;stroke-miterlimit:1.5;">
    <g transform="matrix(0.909091,0,0,0.822222,10.9091,8)">
        <path d="M230,24.324C230,10.89 220.15,0 208,-0L21,-0C8.85,0 -1,10.89 -1,24.324L-1,65.676C-1,79.11 8.85,90 21,90L208,90C220.15,90 230,79.11 230,65.676L230,24.324Z" style="fill:rgb(92,0,186);"/>
        <path d="M230,24.324C230,10.89 220.15,0 208,-0L21,-0C8.85,0 -1,10.89 -1,24.324L-1,65.676C-1,79.11 8.85,90 21,90L208,90C220.15,90 230,79.11 230,65.676L230,24.324Z" style="fill:none;stroke:white;stroke-width:4.61px;"/>
        <path d="M230,24.324C230,10.89 220.15,0 208,-0L21,-0C8.85,0 -1,10.89 -1,24.324L-1,65.676C-1,79.11 8.85,90 21,90L208,90C220.15,90 230,79.11 230,65.676L230,24.324Z" style="fill:none;stroke:rgb(92,0,186);stroke-width:16.15px;stroke-linecap:butt;stroke-miterlimit:2;"/>
    </g>
    <g transform="matrix(0.909091,0,0,0.822222,10.9091,8)">
        <path d="M230,24.324C230,10.89 220.15,0 208,-0L21,-0C8.85,0 -1,10.89 -1,24.324L-1,65.676C-1,79.11 8.85,90 21,90L208,90C220.15,90 230,79.11 230,65.676L230,24.324Z" style="fill:rgb(92,0,186);stroke:white;stroke-width:4.61px;"/>
    </g>
    <g transform="matrix(1,0,0,1,-30.784,17.5318)">
        <g id="レイヤー1">
            <text x="57.679px" y="36.964px" style="font-family:'MS-UIGothic', 'MS UI Gothic', sans-serif;font-size:26px;fill:rgb(240,240,240);">城址公園の歴史</text>
        </g>
    </g>
</svg>
