<?xml version="1.0" encoding="UTF-8" standalone="no"?><!DOCTYPE svg PUBLIC "-//W3C//DTD SVG 1.1//EN" "http://www.w3.org/Graphics/SVG/1.1/DTD/svg11.dtd"><svg width="100%" height="100%" viewBox="0 0 230 90" version="1.1" xmlns="http://www.w3.org/2000/svg" xmlns:xlink="http://www.w3.org/1999/xlink" xml:space="preserve" xmlns:serif="http://www.serif.com/" style="fill-rule:evenodd;clip-rule:evenodd;stroke-linecap:round;stroke-linejoin:round;stroke-miterlimit:1.5;"><path d="M220,28c-0,-11.046 -8.954,-20 -20,-20l-170,-0c-11.046,0 -20,8.954 -20,20l-0,34c0,11.046 8.954,20 20,20l170,-0c11.046,-0 20,-8.954 20,-20l0,-34Z" style="fill:#3a2e3d;"/><path d="M220,28c-0,-11.046 -8.954,-20 -20,-20l-170,-0c-11.046,0 -20,8.954 -20,20l-0,34c0,11.046 8.954,20 20,20l170,-0c11.046,-0 20,-8.954 20,-20l0,-34Z" style="fill:none;stroke:#fff;stroke-width:4px;"/><path d="M220,28c-0,-11.046 -8.954,-20 -20,-20l-170,-0c-11.046,0 -20,8.954 -20,20l-0,34c0,11.046 8.954,20 20,20l170,-0c11.046,-0 20,-8.954 20,-20l0,-34Z" style="fill:none;stroke:#3a2e3d;stroke-width:14px;stroke-linecap:butt;stroke-miterlimit:2;"/><path d="M220,28c-0,-11.046 -8.954,-20 -20,-20l-170,-0c-11.046,0 -20,8.954 -20,20l-0,34c0,11.046 8.954,20 20,20l170,-0c11.046,-0 20,-8.954 20,-20l0,-34Z" style="fill:#3a2e3d;stroke:#fff;stroke-width:4px;"/><g id="レイヤー1"><g transform="matrix(1,0,0,1,-25.0594,17.024)"><text x="57.679px" y="36.964px" style="font-family:'MS-UIGothic', 'MS UI Gothic', sans-serif;font-size:30px;fill:#f0f0f0;stroke:#f0f0f0;stroke-width:1px;stroke-linecap:butt;stroke-miterlimit:2;">ア<tspan x="86.296px " y="36.964px ">リ</tspan></text><text x="109.874px" y="36.964px" style="font-family:'MS-UIGothic', 'MS UI Gothic', sans-serif;font-size:30px;fill:#f0f0f0;stroke:#f0f0f0;stroke-width:1px;stroke-linecap:butt;stroke-miterlimit:2;">ー<tspan x="137.366px " y="36.964px ">ナ</tspan></text><text x="164.39px" y="36.964px" style="font-family:'MS-UIGothic', 'MS UI Gothic', sans-serif;font-size:29px;fill:#f0f0f0;stroke:#f0f0f0;stroke-width:0.7px;stroke-linecap:butt;stroke-miterlimit:2;">問題</text></g></g></svg>