<?xml version="1.0" encoding="UTF-8" standalone="no"?><!DOCTYPE svg PUBLIC "-//W3C//DTD SVG 1.1//EN" "http://www.w3.org/Graphics/SVG/1.1/DTD/svg11.dtd"><svg width="100%" height="100%" viewBox="0 0 230 90" version="1.1" xmlns="http://www.w3.org/2000/svg" xmlns:xlink="http://www.w3.org/1999/xlink" xml:space="preserve" xmlns:serif="http://www.serif.com/" style="fill-rule:evenodd;clip-rule:evenodd;stroke-linecap:round;stroke-linejoin:round;stroke-miterlimit:1.5;"><path d="M220,28c-0,-11.046 -8.954,-20 -20,-20l-170,-0c-11.046,0 -20,8.954 -20,20l-0,34c0,11.046 8.954,20 20,20l170,-0c11.046,-0 20,-8.954 20,-20l0,-34Z" style="fill:#14b1c2;"/><path d="M220,28c-0,-11.046 -8.954,-20 -20,-20l-170,-0c-11.046,0 -20,8.954 -20,20l-0,34c0,11.046 8.954,20 20,20l170,-0c11.046,-0 20,-8.954 20,-20l0,-34Z" style="fill:none;stroke:#fff;stroke-width:4px;"/><path d="M220,28c-0,-11.046 -8.954,-20 -20,-20l-170,-0c-11.046,0 -20,8.954 -20,20l-0,34c0,11.046 8.954,20 20,20l170,-0c11.046,-0 20,-8.954 20,-20l0,-34Z" style="fill:none;stroke:#14b1c2;stroke-width:14px;stroke-linecap:butt;stroke-miterlimit:2;"/><path d="M220,28c-0,-11.046 -8.954,-20 -20,-20l-170,-0c-11.046,0 -20,8.954 -20,20l-0,34c0,11.046 8.954,20 20,20l170,-0c11.046,-0 20,-8.954 20,-20l0,-34Z" style="fill:#14b1c2;stroke:#fff;stroke-width:4px;"/><g id="レイヤー1"><text x="61.828px" y="58.014px" style="font-family:'KintoSans-Bold', 'Kinto Sans';font-weight:700;font-size:36px;fill:#f0f0f0;">噴<tspan x="132.244px " y="58.014px ">水</tspan></text></g></svg>