<?xml version="1.0" encoding="utf-8"?>
<!-- Generator: Adobe Illustrator 16.0.0, SVG Export Plug-In . SVG Version: 6.00 Build 0)  -->
<!DOCTYPE svg PUBLIC "-//W3C//DTD SVG 1.1//EN" "http://www.w3.org/Graphics/SVG/1.1/DTD/svg11.dtd">
<svg version="1.1" xmlns="http://www.w3.org/2000/svg" xmlns:xlink="http://www.w3.org/1999/xlink" x="0px" y="0px" width="480px"
	 height="70px" viewBox="240 245 480 70" enable-background="new 240 245 480 70" xml:space="preserve">
<g id="レイヤー_2">
</g>
<g id="レイヤー_1" xmlns:serif="http://www.serif.com/">
	<g id="アートボード1" transform="matrix(0.988393,0,0,1.03956,-70.5586,-1.13924)">
		<rect x="314.206" y="236.773" fill="none" width="485.637" height="67.336"/>
	</g>
	<g id="帯" transform="matrix(1,0,0,1,-40,-352.214)">
		<g>
			<g transform="matrix(0.816422,0,0,1.01449,3.62422,-208.206)">
				
					<linearGradient id="SVGID_1_" gradientUnits="userSpaceOnUse" x1="46.5981" y1="1104.9187" x2="47.0981" y2="1104.9187" gradientTransform="matrix(143.6903 0 0 -55.9999 -6341.7246 62721.0547)">
					<stop  offset="0" style="stop-color:#F0C82D"/>
					<stop  offset="0.5" style="stop-color:#ECEC58"/>
					<stop  offset="1" style="stop-color:#F0C82D"/>
				</linearGradient>
				<path fill="url(#SVGID_1_)" d="M354.698,859.565l87.2-1.2v-26.4h-87.999l15.199,14.194L354.698,859.565z"/>
			</g>
			<g transform="matrix(1,0,0,1,-31,-91.7862)">
				<path fill="#F2AF0D" d="M363.8,741.6l31.6,11.583V741.6H363.8z"/>
			</g>
		</g>
		<g transform="matrix(-1,0,0,1,1295.54,0)">
			<g transform="matrix(0.816422,0,0,1.01449,3.62422,-208.206)">
				
					<linearGradient id="SVGID_2_" gradientUnits="userSpaceOnUse" x1="1530.3051" y1="1104.9187" x2="1530.8051" y2="1104.9187" gradientTransform="matrix(-143.6903 0 0 -55.9999 220549.2344 62721.0547)">
					<stop  offset="0" style="stop-color:#F0C82D"/>
					<stop  offset="0.5" style="stop-color:#ECEC58"/>
					<stop  offset="1" style="stop-color:#F0C82D"/>
				</linearGradient>
				<path fill="url(#SVGID_2_)" d="M660.085,859.565l87.2-1.2v-26.4h-88l15.199,14.194L660.085,859.565z"/>
			</g>
			<g transform="matrix(1,0,0,1,-31,-91.7862)">
				<path fill="#F2AF0D" d="M613.124,741.6l31.601,11.583V741.6H613.124z"/>
			</g>
		</g>
		<g transform="matrix(4.40527,0,0,1.45833,-625.354,-289.62)">
			
				<linearGradient id="SVGID_3_" gradientUnits="userSpaceOnUse" x1="151.1875" y1="824.2941" x2="151.6875" y2="824.2941" gradientTransform="matrix(761.2307 0 0 -55.9999 -114871.0469 46794.9531)">
				<stop  offset="0" style="stop-color:#F0C82D"/>
				<stop  offset="0.5" style="stop-color:#ECEC58"/>
				<stop  offset="1" style="stop-color:#F0C82D"/>
			</linearGradient>
			<rect x="217.502" y="624.984" fill="url(#SVGID_3_)" width="86.4" height="19.2"/>
		</g>
	</g>
	<g id="黒" transform="matrix(1,0,0,1,-153.441,-252.046)">
		<path stroke="#000000" stroke-width="6" stroke-linejoin="round" stroke-miterlimit="2" d="M464.841,543.191v-14.16h27.28v14.08
			h-4.48v-0.8h-18.56v0.88H464.841z M489.521,519.711v7.96h-22.08v-7.96H489.521z M462.161,518.071v-8.36h13.8v-2.2h4.64v2.2h14.2
			v8.36h-4.56v-4.56h-23.76v4.56H462.161z M468.041,518.311v-3.12h20.68v3.12H468.041z M471.561,524.711h13.56v-2h-13.56V524.711z
			 M487.64,539.031v-1.959h-7.2v1.959H487.64z M476.041,539.031v-1.959h-6.96v1.959H476.041z M487.64,534.231v-1.84h-7.2v1.84
			H487.64z M476.041,534.231v-1.84h-6.96v1.84H476.041z"/>
		<path stroke="#000000" stroke-width="6" stroke-linejoin="round" stroke-miterlimit="2" d="M504.6,516.831v18.76h8.32v-27h4.72v27
			h8.68v-18.84h4.72v25.92h-4.72v-2.4H504.6v2.52h-4.64v-25.959H504.6z"/>
		<path stroke="#000000" stroke-width="6" stroke-linejoin="round" stroke-miterlimit="2" d="M566.361,508.431
			c0.56,1.12,1.24,2.28,2.04,3.48c0.8,1.2,1.647,2.373,2.54,3.52c0.893,1.146,1.813,2.24,2.76,3.28c0.946,1.04,1.86,1.96,2.74,2.76
			c-0.293,0.24-0.62,0.52-0.98,0.84c-0.36,0.32-0.713,0.66-1.06,1.02c-0.347,0.36-0.68,0.727-1,1.1c-0.32,0.373-0.586,0.72-0.8,1.04
			c-0.906-0.96-1.847-2.047-2.819-3.26c-0.974-1.213-1.934-2.48-2.88-3.8s-1.853-2.674-2.72-4.06
			c-0.866-1.387-1.646-2.733-2.34-4.04L566.361,508.431z M556.281,509.871c-0.613,1.493-1.313,2.973-2.101,4.44
			c-0.787,1.466-1.633,2.873-2.54,4.22c-0.906,1.346-1.847,2.606-2.82,3.78s-1.94,2.213-2.9,3.12c-0.24-0.24-0.54-0.52-0.9-0.84
			c-0.36-0.32-0.747-0.64-1.16-0.96c-0.413-0.32-0.82-0.62-1.22-0.9c-0.399-0.28-0.76-0.514-1.08-0.7
			c0.987-0.774,1.94-1.674,2.86-2.7c0.92-1.027,1.793-2.134,2.62-3.32c0.827-1.187,1.58-2.427,2.26-3.72
			c0.68-1.293,1.273-2.607,1.78-3.94L556.281,509.871z M566.921,527.751c0.827,1.04,1.66,2.14,2.5,3.3
			c0.84,1.16,1.653,2.319,2.44,3.479s1.507,2.287,2.16,3.381c0.653,1.093,1.22,2.105,1.7,3.039l-4.76,2.48
			c-0.187-0.453-0.413-0.94-0.68-1.46c-0.267-0.521-0.561-1.06-0.88-1.62c-2.293,0.16-4.6,0.313-6.92,0.46
			c-2.32,0.146-4.58,0.286-6.78,0.42c-2.2,0.134-4.307,0.253-6.32,0.36c-2.013,0.105-3.86,0.199-5.54,0.279l-0.6-4.799l5.32-0.201
			c0.613-1.119,1.227-2.333,1.84-3.64s1.207-2.633,1.78-3.98s1.113-2.687,1.62-4.02s0.934-2.6,1.28-3.8l5.48,1.28
			c-1.013,2.347-2.107,4.74-3.28,7.18c-1.174,2.44-2.347,4.7-3.521,6.78c2.08-0.107,4.213-0.214,6.4-0.32
			c2.187-0.107,4.4-0.227,6.64-0.359c-0.693-1.067-1.413-2.127-2.16-3.181c-0.747-1.054-1.467-2.047-2.16-2.98L566.921,527.751z"/>
		<path stroke="#000000" stroke-width="6" stroke-linejoin="round" stroke-miterlimit="2" d="M581.201,508.991h32.6v34.24h-4.44
			v-1.36h-23.88v1.36h-4.28V508.991z M609.361,537.79v-24.719h-23.88v24.719H609.361z M585.881,533.311
			c1.6-0.454,3.167-1.027,4.7-1.72c1.533-0.694,2.913-1.467,4.14-2.32h-6v-6.52h17.64v5.92l1.92,1.24
			c-0.613,0.48-1.26,0.94-1.94,1.38c-0.68,0.44-1.34,0.847-1.98,1.22c0.693,0.346,1.427,0.652,2.2,0.92
			c0.773,0.266,1.547,0.493,2.32,0.68c-0.373,0.347-0.793,0.801-1.26,1.36s-0.807,1.066-1.02,1.521
			c-1.414-0.454-2.78-1.055-4.1-1.801c-1.32-0.746-2.54-1.586-3.66-2.52v4.279h-3.96v-3.959c-2.133,1.279-4.307,2.332-6.52,3.159
			c-0.107-0.187-0.267-0.407-0.48-0.659c-0.213-0.254-0.433-0.514-0.66-0.781c-0.227-0.266-0.46-0.526-0.7-0.779
			C586.281,533.677,586.067,533.471,585.881,533.311z M595.32,519.031v-1.44h-6.76v-2.44h6.76v-1.64h4.12v1.64h7.04v2.44h-7.04v1.44
			h8.6v2.56h-21.28v-2.56H595.32z M592.521,526.991h9.84v-1.92h-9.84V526.991z M599.68,529.391c0.293,0.293,0.613,0.58,0.96,0.86
			c0.347,0.28,0.72,0.553,1.12,0.82c0.827-0.534,1.653-1.134,2.48-1.8h-4.48L599.68,529.391z"/>
		<path stroke="#000000" stroke-width="6" stroke-linejoin="round" stroke-miterlimit="2" d="M624.441,543.391
			c-0.213-0.614-0.573-1.32-1.08-2.12s-0.987-1.439-1.44-1.92c1.973-0.373,3.573-0.813,4.8-1.32c1.227-0.506,2.213-1.1,2.96-1.779
			c0.747-0.68,1.287-1.44,1.62-2.28c0.333-0.841,0.58-1.78,0.74-2.82h-4.68v-22.44h25.04v22.44h-6.199v6.08
			c0,0.613,0.093,0.993,0.278,1.14s0.649,0.221,1.392,0.221h3.939c0.318,0,0.583-0.054,0.795-0.16c0.213-0.107,0.379-0.34,0.498-0.7
			s0.205-0.874,0.258-1.54c0.054-0.666,0.107-1.561,0.16-2.68c0.239,0.186,0.539,0.373,0.899,0.561
			c0.36,0.186,0.733,0.359,1.12,0.52s0.767,0.3,1.141,0.42c0.373,0.119,0.706,0.22,1,0.3c-0.107,1.521-0.281,2.767-0.521,3.74
			c-0.24,0.974-0.567,1.753-0.979,2.34c-0.414,0.587-0.941,0.993-1.58,1.22c-0.641,0.227-1.428,0.34-2.361,0.34h-5.079
			c-1.12,0-2.047-0.094-2.78-0.279c-0.732-0.188-1.307-0.5-1.72-0.94s-0.7-1.026-0.86-1.76s-0.24-1.634-0.24-2.7v-6.12h-4.64
			c-0.187,1.521-0.5,2.913-0.94,4.181c-0.439,1.266-1.119,2.406-2.04,3.42c-0.92,1.013-2.14,1.906-3.66,2.68
			S626.814,542.857,624.441,543.391z M631.76,527.191h16v-2.4h-16V527.191z M631.76,521.151h16v-2.44h-16V521.151z M631.76,515.071
			h16v-2.4h-16V515.071z"/>
		<path stroke="#000000" stroke-width="6" stroke-linejoin="round" stroke-miterlimit="2" d="M660.601,513.671
			c0.746-0.027,1.453-0.053,2.119-0.08c0.667-0.027,1.188-0.067,1.561-0.12c0.8-0.08,1.773-0.167,2.92-0.26s2.427-0.207,3.84-0.34
			c1.413-0.134,2.934-0.267,4.561-0.4c1.626-0.134,3.307-0.28,5.039-0.44c1.947-0.16,3.881-0.294,5.801-0.4s3.547-0.187,4.879-0.24
			l0.041,4.88c-0.508,0-1.074,0.006-1.7,0.02c-0.627,0.013-1.273,0.033-1.94,0.06c-0.666,0.026-1.313,0.073-1.939,0.14
			c-0.627,0.066-1.193,0.167-1.7,0.3c-1.147,0.293-2.207,0.8-3.181,1.52c-0.973,0.72-1.819,1.566-2.539,2.54
			c-0.721,0.973-1.28,2.02-1.68,3.14c-0.4,1.12-0.601,2.24-0.601,3.36c0,1.546,0.34,2.866,1.021,3.96
			c0.68,1.093,1.58,1.979,2.699,2.66c1.12,0.68,2.42,1.192,3.9,1.54c1.48,0.346,3.02,0.561,4.619,0.64l-1.76,5.24
			c-2-0.134-3.926-0.5-5.779-1.101c-1.854-0.6-3.494-1.439-4.92-2.52c-1.428-1.08-2.574-2.4-3.44-3.96
			c-0.866-1.56-1.3-3.367-1.3-5.42c0-1.36,0.173-2.64,0.52-3.84c0.348-1.2,0.787-2.3,1.32-3.3s1.127-1.88,1.779-2.64
			c0.654-0.76,1.301-1.38,1.941-1.86c-0.801,0.08-1.861,0.193-3.181,0.34c-1.319,0.146-2.72,0.306-4.2,0.48
			c-1.48,0.173-2.953,0.373-4.42,0.6s-2.746,0.46-3.84,0.7L660.601,513.671z"/>
		<path stroke="#000000" stroke-width="6" stroke-linejoin="round" stroke-miterlimit="2" d="M710.601,524.911
			c0,1.2,0.039,2.313,0.119,3.34c0.08,1.026,0.188,2.006,0.32,2.94c0.934-0.934,1.807-1.98,2.62-3.14
			c0.813-1.16,1.526-2.514,2.14-4.06c-0.986,0.026-1.913,0.12-2.779,0.28c-0.867,0.16-1.674,0.347-2.42,0.56V524.911z
			 M703.4,535.671c1.067,0,2.32-0.414,3.761-1.24c-0.214-1.2-0.388-2.434-0.521-3.7s-0.227-2.554-0.279-3.86
			c-0.721,0.48-1.367,1.013-1.94,1.6c-0.573,0.586-1.067,1.187-1.479,1.8c-0.414,0.613-0.734,1.227-0.961,1.84
			s-0.34,1.187-0.34,1.721C701.64,535.058,702.227,535.671,703.4,535.671z M722.081,518.952c-0.106,0.213-0.214,0.5-0.32,0.86
			s-0.227,0.728-0.36,1.101c2.214,0.721,3.987,1.889,5.32,3.503c1.334,1.615,2,3.543,2,5.785c0,1.334-0.213,2.642-0.64,3.923
			s-1.134,2.456-2.12,3.522c-0.986,1.067-2.273,1.994-3.859,2.781c-1.588,0.787-3.541,1.354-5.861,1.699l-2.52-3.959
			c1.813-0.213,3.373-0.58,4.68-1.101c1.307-0.52,2.373-1.153,3.201-1.899c0.826-0.747,1.433-1.567,1.819-2.461
			c0.387-0.893,0.58-1.806,0.58-2.739c0-1.147-0.333-2.193-1-3.14s-1.64-1.66-2.92-2.14c-1.04,2.587-2.267,4.84-3.681,6.76
			c-1.412,1.919-2.84,3.48-4.279,4.679c0.133,0.508,0.273,0.994,0.42,1.461c0.146,0.465,0.3,0.924,0.46,1.373l-4.36,1.309
			c-0.08-0.24-0.166-0.486-0.26-0.74s-0.18-0.526-0.26-0.82c-0.934,0.453-1.887,0.827-2.86,1.121
			c-0.974,0.293-1.967,0.439-2.979,0.439c-0.693,0-1.354-0.107-1.98-0.32s-1.173-0.547-1.64-1s-0.833-1.033-1.101-1.74
			c-0.267-0.706-0.399-1.539-0.399-2.5c0-1.199,0.233-2.406,0.7-3.619c0.467-1.214,1.119-2.374,1.959-3.48
			c0.841-1.106,1.828-2.12,2.961-3.04c1.133-0.92,2.354-1.687,3.66-2.3c0.053-0.8,0.113-1.594,0.18-2.38
			c0.066-0.787,0.14-1.567,0.22-2.34h-1.239c-0.508,0-1.054-0.007-1.641-0.02c-0.587-0.014-1.18-0.034-1.779-0.06
			c-0.601-0.027-1.181-0.054-1.74-0.08c-0.561-0.027-1.067-0.054-1.521-0.08l-0.16-4.4c0.32,0.053,0.761,0.106,1.32,0.16
			c0.56,0.053,1.159,0.106,1.8,0.16c0.641,0.053,1.301,0.093,1.98,0.12c0.68,0.026,1.313,0.04,1.899,0.04h1.44l0.24-2
			c0.053-0.347,0.093-0.727,0.119-1.14c0.027-0.414,0.027-0.793,0-1.14l4.961,0.12c-0.24,0.64-0.428,1.313-0.561,2.02
			s-0.254,1.393-0.359,2.06c2.319-0.08,4.52-0.247,6.6-0.5s4.16-0.634,6.24-1.14l0.039,4.36c-1.84,0.373-3.953,0.666-6.34,0.88
			c-2.387,0.213-4.753,0.386-7.1,0.52c-0.053,0.56-0.107,1.12-0.16,1.68c-0.053,0.56-0.094,1.133-0.12,1.72
			c1.867-0.454,3.761-0.68,5.681-0.68h0.64c0.08-0.374,0.153-0.773,0.22-1.2c0.066-0.427,0.113-0.787,0.141-1.08L722.081,518.952z"
			/>
		<path stroke="#000000" stroke-width="6" stroke-linejoin="round" stroke-miterlimit="2" d="M749.32,537.63
			c0.828,0,1.572-0.039,2.24-0.119c-0.132-1.227-0.527-2.214-1.18-2.96c-0.652-0.747-1.5-1.12-2.541-1.12
			c-0.691,0-1.252,0.18-1.68,0.54s-0.64,0.78-0.64,1.26c0,0.72,0.353,1.3,1.06,1.74C747.289,537.411,748.201,537.63,749.32,537.63z
			 M760.104,513.641c-0.456,0.294-0.899,0.582-1.34,0.863c-0.44,0.281-0.876,0.569-1.3,0.863c-0.508,0.348-1.12,0.81-1.84,1.385
			c-0.721,0.575-1.461,1.177-2.221,1.806c-0.76,0.628-1.52,1.258-2.279,1.887c-0.76,0.628-1.433,1.184-2.017,1.666
			c0.608-0.187,1.204-0.307,1.776-0.36c0.572-0.054,1.164-0.08,1.775-0.08c1.596,0,3.08,0.24,4.452,0.72s2.568,1.14,3.597,1.98
			c1.023,0.84,1.819,1.84,2.396,3c0.572,1.16,0.856,2.433,0.856,3.82c0,1.493-0.284,2.894-0.856,4.2
			c-0.576,1.306-1.424,2.44-2.556,3.399c-1.133,0.961-2.557,1.721-4.272,2.28c-1.72,0.56-3.724,0.841-6.012,0.841
			c-1.304,0-2.521-0.148-3.652-0.442s-2.112-0.716-2.936-1.264c-0.824-0.548-1.472-1.204-1.937-1.966
			c-0.468-0.764-0.699-1.613-0.699-2.549c0-0.776,0.168-1.519,0.5-2.229c0.332-0.708,0.795-1.337,1.396-1.885
			c0.601-0.549,1.319-0.984,2.155-1.305c0.841-0.321,1.753-0.481,2.736-0.481c1.172,0,2.225,0.167,3.156,0.5s1.736,0.787,2.416,1.36
			s1.225,1.253,1.637,2.04s0.699,1.633,0.859,2.54c2.068-1.12,3.104-2.84,3.104-5.16c0-0.854-0.199-1.624-0.6-2.311
			s-0.956-1.282-1.664-1.784s-1.544-0.885-2.508-1.149c-0.96-0.264-1.992-0.396-3.084-0.396c-1.439,0-2.775,0.187-4,0.56
			c-1.229,0.373-2.389,0.893-3.48,1.56c-1.096,0.666-2.14,1.473-3.14,2.42c-1,0.946-2.008,1.993-3.021,3.14l-3.439-3.56
			c0.664-0.56,1.432-1.194,2.301-1.9c0.863-0.707,1.739-1.427,2.619-2.16c0.881-0.734,1.721-1.44,2.52-2.12
			c0.801-0.68,1.48-1.247,2.041-1.7c0.531-0.454,1.16-0.967,1.879-1.54c0.721-0.573,1.445-1.167,2.181-1.78
			c0.731-0.614,1.44-1.207,2.12-1.78c0.68-0.574,1.26-1.06,1.74-1.46c-0.48,0-1.133,0.014-1.961,0.04
			c-0.823,0.026-1.691,0.06-2.596,0.1c-0.908,0.04-1.775,0.08-2.6,0.12c-0.828,0.04-1.496,0.086-2,0.14
			c-0.508,0.026-1.036,0.066-1.584,0.12c-0.544,0.053-1.044,0.12-1.5,0.2l-0.16-5c0.536,0.053,1.107,0.1,1.725,0.14
			c0.611,0.04,1.184,0.06,1.719,0.06c0.505,0,1.324-0.014,2.461-0.04c1.132-0.027,2.336-0.054,3.615-0.08
			c1.281-0.027,2.492-0.067,3.641-0.12c1.145-0.054,1.984-0.094,2.52-0.12c0.772-0.053,1.393-0.12,1.86-0.2
			c0.464-0.08,0.819-0.147,1.06-0.2L760.104,513.641z"/>
		<path stroke="#000000" stroke-width="6" stroke-linejoin="round" stroke-miterlimit="2" d="M802.72,509.431v18.52h-4.561v-1.88
			h-7.439v10.68c0,0.8,0.128,1.307,0.38,1.52s0.828,0.32,1.731,0.32h5.461c0.424,0,0.768-0.066,1.031-0.2
			c0.268-0.134,0.473-0.407,0.62-0.821c0.144-0.413,0.257-0.987,0.337-1.721c0.079-0.734,0.159-1.701,0.239-2.902
			c0.508,0.374,1.181,0.727,2.021,1.061s1.567,0.567,2.18,0.701c-0.133,1.6-0.328,2.928-0.58,3.98
			c-0.252,1.055-0.607,1.895-1.061,2.521c-0.451,0.627-1.039,1.066-1.76,1.32c-0.72,0.254-1.628,0.381-2.72,0.381h-6.28
			c-1.199,0-2.199-0.094-3-0.281c-0.8-0.186-1.439-0.514-1.92-0.979c-0.48-0.467-0.82-1.093-1.02-1.88
			c-0.2-0.787-0.301-1.793-0.301-3.02v-15h12.08v-8H786v-4.32H802.72z M770.6,529.631h12.239v11.6h-8.319v1.479h-3.92V529.631z
			 M768.881,513.831l15.64-0.04v3.64h-15.64V513.831z M782.961,519.151v3.48h-12.28v-3.48H782.961z M770.92,508.711h12.16v3.44
			h-12.16V508.711z M770.68,527.791v-3.36h12.28v3.36H770.68z M774.52,537.671h4.36v-4.4h-4.36V537.671z"/>
	</g>
	<g id="白" transform="matrix(1,0,0,1,-153.441,-252.046)">
		<path stroke="#FFFFFF" stroke-width="5" stroke-linejoin="round" stroke-miterlimit="2" d="M464.841,543.191v-14.16h27.28v14.08
			h-4.48v-0.8h-18.56v0.88H464.841z M489.521,519.711v7.96h-22.08v-7.96H489.521z M462.161,518.071v-8.36h13.8v-2.2h4.64v2.2h14.2
			v8.36h-4.56v-4.56h-23.76v4.56H462.161z M468.041,518.311v-3.12h20.68v3.12H468.041z M471.561,524.711h13.56v-2h-13.56V524.711z
			 M487.64,539.031v-1.959h-7.2v1.959H487.64z M476.041,539.031v-1.959h-6.96v1.959H476.041z M487.64,534.231v-1.84h-7.2v1.84
			H487.64z M476.041,534.231v-1.84h-6.96v1.84H476.041z"/>
		<path stroke="#FFFFFF" stroke-width="5" stroke-linejoin="round" stroke-miterlimit="2" d="M504.6,516.831v18.76h8.32v-27h4.72v27
			h8.68v-18.84h4.72v25.92h-4.72v-2.4H504.6v2.52h-4.64v-25.959H504.6z"/>
		<path stroke="#FFFFFF" stroke-width="5" stroke-linejoin="round" stroke-miterlimit="2" d="M566.361,508.431
			c0.56,1.12,1.24,2.28,2.04,3.48c0.8,1.2,1.647,2.373,2.54,3.52c0.893,1.146,1.813,2.24,2.76,3.28c0.946,1.04,1.86,1.96,2.74,2.76
			c-0.293,0.24-0.62,0.52-0.98,0.84c-0.36,0.32-0.713,0.66-1.06,1.02c-0.347,0.36-0.68,0.727-1,1.1c-0.32,0.373-0.586,0.72-0.8,1.04
			c-0.906-0.96-1.847-2.047-2.819-3.26c-0.974-1.213-1.934-2.48-2.88-3.8s-1.853-2.674-2.72-4.06
			c-0.866-1.387-1.646-2.733-2.34-4.04L566.361,508.431z M556.281,509.871c-0.613,1.493-1.313,2.973-2.101,4.44
			c-0.787,1.466-1.633,2.873-2.54,4.22c-0.906,1.346-1.847,2.606-2.82,3.78s-1.94,2.213-2.9,3.12c-0.24-0.24-0.54-0.52-0.9-0.84
			c-0.36-0.32-0.747-0.64-1.16-0.96c-0.413-0.32-0.82-0.62-1.22-0.9c-0.399-0.28-0.76-0.514-1.08-0.7
			c0.987-0.774,1.94-1.674,2.86-2.7c0.92-1.027,1.793-2.134,2.62-3.32c0.827-1.187,1.58-2.427,2.26-3.72
			c0.68-1.293,1.273-2.607,1.78-3.94L556.281,509.871z M566.921,527.751c0.827,1.04,1.66,2.14,2.5,3.3
			c0.84,1.16,1.653,2.319,2.44,3.479s1.507,2.287,2.16,3.381c0.653,1.093,1.22,2.105,1.7,3.039l-4.76,2.48
			c-0.187-0.453-0.413-0.94-0.68-1.46c-0.267-0.521-0.561-1.06-0.88-1.62c-2.293,0.16-4.6,0.313-6.92,0.46
			c-2.32,0.146-4.58,0.286-6.78,0.42c-2.2,0.134-4.307,0.253-6.32,0.36c-2.013,0.105-3.86,0.199-5.54,0.279l-0.6-4.799l5.32-0.201
			c0.613-1.119,1.227-2.333,1.84-3.64s1.207-2.633,1.78-3.98s1.113-2.687,1.62-4.02s0.934-2.6,1.28-3.8l5.48,1.28
			c-1.013,2.347-2.107,4.74-3.28,7.18c-1.174,2.44-2.347,4.7-3.521,6.78c2.08-0.107,4.213-0.214,6.4-0.32
			c2.187-0.107,4.4-0.227,6.64-0.359c-0.693-1.067-1.413-2.127-2.16-3.181c-0.747-1.054-1.467-2.047-2.16-2.98L566.921,527.751z"/>
		<path stroke="#FFFFFF" stroke-width="5" stroke-linejoin="round" stroke-miterlimit="2" d="M581.201,508.991h32.6v34.24h-4.44
			v-1.36h-23.88v1.36h-4.28V508.991z M609.361,537.79v-24.719h-23.88v24.719H609.361z M585.881,533.311
			c1.6-0.454,3.167-1.027,4.7-1.72c1.533-0.694,2.913-1.467,4.14-2.32h-6v-6.52h17.64v5.92l1.92,1.24
			c-0.613,0.48-1.26,0.94-1.94,1.38c-0.68,0.44-1.34,0.847-1.98,1.22c0.693,0.346,1.427,0.652,2.2,0.92
			c0.773,0.266,1.547,0.493,2.32,0.68c-0.373,0.347-0.793,0.801-1.26,1.36s-0.807,1.066-1.02,1.521
			c-1.414-0.454-2.78-1.055-4.1-1.801c-1.32-0.746-2.54-1.586-3.66-2.52v4.279h-3.96v-3.959c-2.133,1.279-4.307,2.332-6.52,3.159
			c-0.107-0.187-0.267-0.407-0.48-0.659c-0.213-0.254-0.433-0.514-0.66-0.781c-0.227-0.266-0.46-0.526-0.7-0.779
			C586.281,533.677,586.067,533.471,585.881,533.311z M595.32,519.031v-1.44h-6.76v-2.44h6.76v-1.64h4.12v1.64h7.04v2.44h-7.04v1.44
			h8.6v2.56h-21.28v-2.56H595.32z M592.521,526.991h9.84v-1.92h-9.84V526.991z M599.68,529.391c0.293,0.293,0.613,0.58,0.96,0.86
			c0.347,0.28,0.72,0.553,1.12,0.82c0.827-0.534,1.653-1.134,2.48-1.8h-4.48L599.68,529.391z"/>
		<path stroke="#FFFFFF" stroke-width="5" stroke-linejoin="round" stroke-miterlimit="2" d="M624.441,543.391
			c-0.213-0.614-0.573-1.32-1.08-2.12s-0.987-1.439-1.44-1.92c1.973-0.373,3.573-0.813,4.8-1.32c1.227-0.506,2.213-1.1,2.96-1.779
			c0.747-0.68,1.287-1.44,1.62-2.28c0.333-0.841,0.58-1.78,0.74-2.82h-4.68v-22.44h25.04v22.44h-6.199v6.08
			c0,0.613,0.093,0.993,0.278,1.14s0.649,0.221,1.392,0.221h3.939c0.318,0,0.583-0.054,0.795-0.16c0.213-0.107,0.379-0.34,0.498-0.7
			s0.205-0.874,0.258-1.54c0.054-0.666,0.107-1.561,0.16-2.68c0.239,0.186,0.539,0.373,0.899,0.561
			c0.36,0.186,0.733,0.359,1.12,0.52s0.767,0.3,1.141,0.42c0.373,0.119,0.706,0.22,1,0.3c-0.107,1.521-0.281,2.767-0.521,3.74
			c-0.24,0.974-0.567,1.753-0.979,2.34c-0.414,0.587-0.941,0.993-1.58,1.22c-0.641,0.227-1.428,0.34-2.361,0.34h-5.079
			c-1.12,0-2.047-0.094-2.78-0.279c-0.732-0.188-1.307-0.5-1.72-0.94s-0.7-1.026-0.86-1.76s-0.24-1.634-0.24-2.7v-6.12h-4.64
			c-0.187,1.521-0.5,2.913-0.94,4.181c-0.439,1.266-1.119,2.406-2.04,3.42c-0.92,1.013-2.14,1.906-3.66,2.68
			S626.814,542.857,624.441,543.391z M631.76,527.191h16v-2.4h-16V527.191z M631.76,521.151h16v-2.44h-16V521.151z M631.76,515.071
			h16v-2.4h-16V515.071z"/>
		<path stroke="#FFFFFF" stroke-width="5" stroke-linejoin="round" stroke-miterlimit="2" d="M660.601,513.671
			c0.746-0.027,1.453-0.053,2.119-0.08c0.667-0.027,1.188-0.067,1.561-0.12c0.8-0.08,1.773-0.167,2.92-0.26s2.427-0.207,3.84-0.34
			c1.413-0.134,2.934-0.267,4.561-0.4c1.626-0.134,3.307-0.28,5.039-0.44c1.947-0.16,3.881-0.294,5.801-0.4s3.547-0.187,4.879-0.24
			l0.041,4.88c-0.508,0-1.074,0.006-1.7,0.02c-0.627,0.013-1.273,0.033-1.94,0.06c-0.666,0.026-1.313,0.073-1.939,0.14
			c-0.627,0.066-1.193,0.167-1.7,0.3c-1.147,0.293-2.207,0.8-3.181,1.52c-0.973,0.72-1.819,1.566-2.539,2.54
			c-0.721,0.973-1.28,2.02-1.68,3.14c-0.4,1.12-0.601,2.24-0.601,3.36c0,1.546,0.34,2.866,1.021,3.96
			c0.68,1.093,1.58,1.979,2.699,2.66c1.12,0.68,2.42,1.192,3.9,1.54c1.48,0.346,3.02,0.561,4.619,0.64l-1.76,5.24
			c-2-0.134-3.926-0.5-5.779-1.101c-1.854-0.6-3.494-1.439-4.92-2.52c-1.428-1.08-2.574-2.4-3.44-3.96
			c-0.866-1.56-1.3-3.367-1.3-5.42c0-1.36,0.173-2.64,0.52-3.84c0.348-1.2,0.787-2.3,1.32-3.3s1.127-1.88,1.779-2.64
			c0.654-0.76,1.301-1.38,1.941-1.86c-0.801,0.08-1.861,0.193-3.181,0.34c-1.319,0.146-2.72,0.306-4.2,0.48
			c-1.48,0.173-2.953,0.373-4.42,0.6s-2.746,0.46-3.84,0.7L660.601,513.671z"/>
		<path stroke="#FFFFFF" stroke-width="5" stroke-linejoin="round" stroke-miterlimit="2" d="M710.601,524.911
			c0,1.2,0.039,2.313,0.119,3.34c0.08,1.026,0.188,2.006,0.32,2.94c0.934-0.934,1.807-1.98,2.62-3.14
			c0.813-1.16,1.526-2.514,2.14-4.06c-0.986,0.026-1.913,0.12-2.779,0.28c-0.867,0.16-1.674,0.347-2.42,0.56V524.911z
			 M703.4,535.671c1.067,0,2.32-0.414,3.761-1.24c-0.214-1.2-0.388-2.434-0.521-3.7s-0.227-2.554-0.279-3.86
			c-0.721,0.48-1.367,1.013-1.94,1.6c-0.573,0.586-1.067,1.187-1.479,1.8c-0.414,0.613-0.734,1.227-0.961,1.84
			s-0.34,1.187-0.34,1.721C701.64,535.058,702.227,535.671,703.4,535.671z M722.081,518.952c-0.106,0.213-0.214,0.5-0.32,0.86
			s-0.227,0.728-0.36,1.101c2.214,0.721,3.987,1.889,5.32,3.503c1.334,1.615,2,3.543,2,5.785c0,1.334-0.213,2.642-0.64,3.923
			s-1.134,2.456-2.12,3.522c-0.986,1.067-2.273,1.994-3.859,2.781c-1.588,0.787-3.541,1.354-5.861,1.699l-2.52-3.959
			c1.813-0.213,3.373-0.58,4.68-1.101c1.307-0.52,2.373-1.153,3.201-1.899c0.826-0.747,1.433-1.567,1.819-2.461
			c0.387-0.893,0.58-1.806,0.58-2.739c0-1.147-0.333-2.193-1-3.14s-1.64-1.66-2.92-2.14c-1.04,2.587-2.267,4.84-3.681,6.76
			c-1.412,1.919-2.84,3.48-4.279,4.679c0.133,0.508,0.273,0.994,0.42,1.461c0.146,0.465,0.3,0.924,0.46,1.373l-4.36,1.309
			c-0.08-0.24-0.166-0.486-0.26-0.74s-0.18-0.526-0.26-0.82c-0.934,0.453-1.887,0.827-2.86,1.121
			c-0.974,0.293-1.967,0.439-2.979,0.439c-0.693,0-1.354-0.107-1.98-0.32s-1.173-0.547-1.64-1s-0.833-1.033-1.101-1.74
			c-0.267-0.706-0.399-1.539-0.399-2.5c0-1.199,0.233-2.406,0.7-3.619c0.467-1.214,1.119-2.374,1.959-3.48
			c0.841-1.106,1.828-2.12,2.961-3.04c1.133-0.92,2.354-1.687,3.66-2.3c0.053-0.8,0.113-1.594,0.18-2.38
			c0.066-0.787,0.14-1.567,0.22-2.34h-1.239c-0.508,0-1.054-0.007-1.641-0.02c-0.587-0.014-1.18-0.034-1.779-0.06
			c-0.601-0.027-1.181-0.054-1.74-0.08c-0.561-0.027-1.067-0.054-1.521-0.08l-0.16-4.4c0.32,0.053,0.761,0.106,1.32,0.16
			c0.56,0.053,1.159,0.106,1.8,0.16c0.641,0.053,1.301,0.093,1.98,0.12c0.68,0.026,1.313,0.04,1.899,0.04h1.44l0.24-2
			c0.053-0.347,0.093-0.727,0.119-1.14c0.027-0.414,0.027-0.793,0-1.14l4.961,0.12c-0.24,0.64-0.428,1.313-0.561,2.02
			s-0.254,1.393-0.359,2.06c2.319-0.08,4.52-0.247,6.6-0.5s4.16-0.634,6.24-1.14l0.039,4.36c-1.84,0.373-3.953,0.666-6.34,0.88
			c-2.387,0.213-4.753,0.386-7.1,0.52c-0.053,0.56-0.107,1.12-0.16,1.68c-0.053,0.56-0.094,1.133-0.12,1.72
			c1.867-0.454,3.761-0.68,5.681-0.68h0.64c0.08-0.374,0.153-0.773,0.22-1.2c0.066-0.427,0.113-0.787,0.141-1.08L722.081,518.952z"
			/>
		<path stroke="#FFFFFF" stroke-width="5" stroke-linejoin="round" stroke-miterlimit="2" d="M749.32,537.63
			c0.828,0,1.572-0.039,2.24-0.119c-0.132-1.227-0.527-2.214-1.18-2.96c-0.652-0.747-1.5-1.12-2.541-1.12
			c-0.691,0-1.252,0.18-1.68,0.54s-0.64,0.78-0.64,1.26c0,0.72,0.353,1.3,1.06,1.74C747.289,537.411,748.201,537.63,749.32,537.63z
			 M760.104,513.641c-0.456,0.294-0.899,0.582-1.34,0.863c-0.44,0.281-0.876,0.569-1.3,0.863c-0.508,0.348-1.12,0.81-1.84,1.385
			c-0.721,0.575-1.461,1.177-2.221,1.806c-0.76,0.628-1.52,1.258-2.279,1.887c-0.76,0.628-1.433,1.184-2.017,1.666
			c0.608-0.187,1.204-0.307,1.776-0.36c0.572-0.054,1.164-0.08,1.775-0.08c1.596,0,3.08,0.24,4.452,0.72s2.568,1.14,3.597,1.98
			c1.023,0.84,1.819,1.84,2.396,3c0.572,1.16,0.856,2.433,0.856,3.82c0,1.493-0.284,2.894-0.856,4.2
			c-0.576,1.306-1.424,2.44-2.556,3.399c-1.133,0.961-2.557,1.721-4.272,2.28c-1.72,0.56-3.724,0.841-6.012,0.841
			c-1.304,0-2.521-0.148-3.652-0.442s-2.112-0.716-2.936-1.264c-0.824-0.548-1.472-1.204-1.937-1.966
			c-0.468-0.764-0.699-1.613-0.699-2.549c0-0.776,0.168-1.519,0.5-2.229c0.332-0.708,0.795-1.337,1.396-1.885
			c0.601-0.549,1.319-0.984,2.155-1.305c0.841-0.321,1.753-0.481,2.736-0.481c1.172,0,2.225,0.167,3.156,0.5s1.736,0.787,2.416,1.36
			s1.225,1.253,1.637,2.04s0.699,1.633,0.859,2.54c2.068-1.12,3.104-2.84,3.104-5.16c0-0.854-0.199-1.624-0.6-2.311
			s-0.956-1.282-1.664-1.784s-1.544-0.885-2.508-1.149c-0.96-0.264-1.992-0.396-3.084-0.396c-1.439,0-2.775,0.187-4,0.56
			c-1.229,0.373-2.389,0.893-3.48,1.56c-1.096,0.666-2.14,1.473-3.14,2.42c-1,0.946-2.008,1.993-3.021,3.14l-3.439-3.56
			c0.664-0.56,1.432-1.194,2.301-1.9c0.863-0.707,1.739-1.427,2.619-2.16c0.881-0.734,1.721-1.44,2.52-2.12
			c0.801-0.68,1.48-1.247,2.041-1.7c0.531-0.454,1.16-0.967,1.879-1.54c0.721-0.573,1.445-1.167,2.181-1.78
			c0.731-0.614,1.44-1.207,2.12-1.78c0.68-0.574,1.26-1.06,1.74-1.46c-0.48,0-1.133,0.014-1.961,0.04
			c-0.823,0.026-1.691,0.06-2.596,0.1c-0.908,0.04-1.775,0.08-2.6,0.12c-0.828,0.04-1.496,0.086-2,0.14
			c-0.508,0.026-1.036,0.066-1.584,0.12c-0.544,0.053-1.044,0.12-1.5,0.2l-0.16-5c0.536,0.053,1.107,0.1,1.725,0.14
			c0.611,0.04,1.184,0.06,1.719,0.06c0.505,0,1.324-0.014,2.461-0.04c1.132-0.027,2.336-0.054,3.615-0.08
			c1.281-0.027,2.492-0.067,3.641-0.12c1.145-0.054,1.984-0.094,2.52-0.12c0.772-0.053,1.393-0.12,1.86-0.2
			c0.464-0.08,0.819-0.147,1.06-0.2L760.104,513.641z"/>
		<path stroke="#FFFFFF" stroke-width="5" stroke-linejoin="round" stroke-miterlimit="2" d="M802.72,509.431v18.52h-4.561v-1.88
			h-7.439v10.68c0,0.8,0.128,1.307,0.38,1.52s0.828,0.32,1.731,0.32h5.461c0.424,0,0.768-0.066,1.031-0.2
			c0.268-0.134,0.473-0.407,0.62-0.821c0.144-0.413,0.257-0.987,0.337-1.721c0.079-0.734,0.159-1.701,0.239-2.902
			c0.508,0.374,1.181,0.727,2.021,1.061s1.567,0.567,2.18,0.701c-0.133,1.6-0.328,2.928-0.58,3.98
			c-0.252,1.055-0.607,1.895-1.061,2.521c-0.451,0.627-1.039,1.066-1.76,1.32c-0.72,0.254-1.628,0.381-2.72,0.381h-6.28
			c-1.199,0-2.199-0.094-3-0.281c-0.8-0.186-1.439-0.514-1.92-0.979c-0.48-0.467-0.82-1.093-1.02-1.88
			c-0.2-0.787-0.301-1.793-0.301-3.02v-15h12.08v-8H786v-4.32H802.72z M770.6,529.631h12.239v11.6h-8.319v1.479h-3.92V529.631z
			 M768.881,513.831l15.64-0.04v3.64h-15.64V513.831z M782.961,519.151v3.48h-12.28v-3.48H782.961z M770.92,508.711h12.16v3.44
			h-12.16V508.711z M770.68,527.791v-3.36h12.28v3.36H770.68z M774.52,537.671h4.36v-4.4h-4.36V537.671z"/>
	</g>
	<g id="黒1" transform="matrix(1,0,0,1,-153.441,-252.046)" serif:id="鮟">
		<path stroke="#2B4C29" stroke-width="1.5" stroke-linejoin="round" stroke-miterlimit="2" d="M464.841,543.191v-14.16h27.28v14.08
			h-4.48v-0.8h-18.56v0.88H464.841z M489.521,519.711v7.96h-22.08v-7.96H489.521z M462.161,518.071v-8.36h13.8v-2.2h4.64v2.2h14.2
			v8.36h-4.56v-4.56h-23.76v4.56H462.161z M468.041,518.311v-3.12h20.68v3.12H468.041z M471.561,524.711h13.56v-2h-13.56V524.711z
			 M487.64,539.031v-1.959h-7.2v1.959H487.64z M476.041,539.031v-1.959h-6.96v1.959H476.041z M487.64,534.231v-1.84h-7.2v1.84
			H487.64z M476.041,534.231v-1.84h-6.96v1.84H476.041z"/>
		<path stroke="#2B4C29" stroke-width="1.5" stroke-linejoin="round" stroke-miterlimit="2" d="M504.6,516.831v18.76h8.32v-27h4.72
			v27h8.68v-18.84h4.72v25.92h-4.72v-2.4H504.6v2.52h-4.64v-25.959H504.6z"/>
		<path stroke="#2B4C29" stroke-width="1.5" stroke-linejoin="round" stroke-miterlimit="2" d="M566.361,508.431
			c0.56,1.12,1.24,2.28,2.04,3.48c0.8,1.2,1.647,2.373,2.54,3.52c0.893,1.146,1.813,2.24,2.76,3.28c0.946,1.04,1.86,1.96,2.74,2.76
			c-0.293,0.24-0.62,0.52-0.98,0.84c-0.36,0.32-0.713,0.66-1.06,1.02c-0.347,0.36-0.68,0.727-1,1.1c-0.32,0.373-0.586,0.72-0.8,1.04
			c-0.906-0.96-1.847-2.047-2.819-3.26c-0.974-1.213-1.934-2.48-2.88-3.8s-1.853-2.674-2.72-4.06
			c-0.866-1.387-1.646-2.733-2.34-4.04L566.361,508.431z M556.281,509.871c-0.613,1.493-1.313,2.973-2.101,4.44
			c-0.787,1.466-1.633,2.873-2.54,4.22c-0.906,1.346-1.847,2.606-2.82,3.78s-1.94,2.213-2.9,3.12c-0.24-0.24-0.54-0.52-0.9-0.84
			c-0.36-0.32-0.747-0.64-1.16-0.96c-0.413-0.32-0.82-0.62-1.22-0.9c-0.399-0.28-0.76-0.514-1.08-0.7
			c0.987-0.774,1.94-1.674,2.86-2.7c0.92-1.027,1.793-2.134,2.62-3.32c0.827-1.187,1.58-2.427,2.26-3.72
			c0.68-1.293,1.273-2.607,1.78-3.94L556.281,509.871z M566.921,527.751c0.827,1.04,1.66,2.14,2.5,3.3
			c0.84,1.16,1.653,2.319,2.44,3.479s1.507,2.287,2.16,3.381c0.653,1.093,1.22,2.105,1.7,3.039l-4.76,2.48
			c-0.187-0.453-0.413-0.94-0.68-1.46c-0.267-0.521-0.561-1.06-0.88-1.62c-2.293,0.16-4.6,0.313-6.92,0.46
			c-2.32,0.146-4.58,0.286-6.78,0.42c-2.2,0.134-4.307,0.253-6.32,0.36c-2.013,0.105-3.86,0.199-5.54,0.279l-0.6-4.799l5.32-0.201
			c0.613-1.119,1.227-2.333,1.84-3.64s1.207-2.633,1.78-3.98s1.113-2.687,1.62-4.02s0.934-2.6,1.28-3.8l5.48,1.28
			c-1.013,2.347-2.107,4.74-3.28,7.18c-1.174,2.44-2.347,4.7-3.521,6.78c2.08-0.107,4.213-0.214,6.4-0.32
			c2.187-0.107,4.4-0.227,6.64-0.359c-0.693-1.067-1.413-2.127-2.16-3.181c-0.747-1.054-1.467-2.047-2.16-2.98L566.921,527.751z"/>
		<path stroke="#2B4C29" stroke-width="1.5" stroke-linejoin="round" stroke-miterlimit="2" d="M581.201,508.991h32.6v34.24h-4.44
			v-1.36h-23.88v1.36h-4.28V508.991z M609.361,537.79v-24.719h-23.88v24.719H609.361z M585.881,533.311
			c1.6-0.454,3.167-1.027,4.7-1.72c1.533-0.694,2.913-1.467,4.14-2.32h-6v-6.52h17.64v5.92l1.92,1.24
			c-0.613,0.48-1.26,0.94-1.94,1.38c-0.68,0.44-1.34,0.847-1.98,1.22c0.693,0.346,1.427,0.652,2.2,0.92
			c0.773,0.266,1.547,0.493,2.32,0.68c-0.373,0.347-0.793,0.801-1.26,1.36s-0.807,1.066-1.02,1.521
			c-1.414-0.454-2.78-1.055-4.1-1.801c-1.32-0.746-2.54-1.586-3.66-2.52v4.279h-3.96v-3.959c-2.133,1.279-4.307,2.332-6.52,3.159
			c-0.107-0.187-0.267-0.407-0.48-0.659c-0.213-0.254-0.433-0.514-0.66-0.781c-0.227-0.266-0.46-0.526-0.7-0.779
			C586.281,533.677,586.067,533.471,585.881,533.311z M595.32,519.031v-1.44h-6.76v-2.44h6.76v-1.64h4.12v1.64h7.04v2.44h-7.04v1.44
			h8.6v2.56h-21.28v-2.56H595.32z M592.521,526.991h9.84v-1.92h-9.84V526.991z M599.68,529.391c0.293,0.293,0.613,0.58,0.96,0.86
			c0.347,0.28,0.72,0.553,1.12,0.82c0.827-0.534,1.653-1.134,2.48-1.8h-4.48L599.68,529.391z"/>
		<path stroke="#2B4C29" stroke-width="1.5" stroke-linejoin="round" stroke-miterlimit="2" d="M624.441,543.391
			c-0.213-0.614-0.573-1.32-1.08-2.12s-0.987-1.439-1.44-1.92c1.973-0.373,3.573-0.813,4.8-1.32c1.227-0.506,2.213-1.1,2.96-1.779
			c0.747-0.68,1.287-1.44,1.62-2.28c0.333-0.841,0.58-1.78,0.74-2.82h-4.68v-22.44h25.04v22.44h-6.199v6.08
			c0,0.613,0.093,0.993,0.278,1.14s0.649,0.221,1.392,0.221h3.939c0.318,0,0.583-0.054,0.795-0.16c0.213-0.107,0.379-0.34,0.498-0.7
			s0.205-0.874,0.258-1.54c0.054-0.666,0.107-1.561,0.16-2.68c0.239,0.186,0.539,0.373,0.899,0.561
			c0.36,0.186,0.733,0.359,1.12,0.52s0.767,0.3,1.141,0.42c0.373,0.119,0.706,0.22,1,0.3c-0.107,1.521-0.281,2.767-0.521,3.74
			c-0.24,0.974-0.567,1.753-0.979,2.34c-0.414,0.587-0.941,0.993-1.58,1.22c-0.641,0.227-1.428,0.34-2.361,0.34h-5.079
			c-1.12,0-2.047-0.094-2.78-0.279c-0.732-0.188-1.307-0.5-1.72-0.94s-0.7-1.026-0.86-1.76s-0.24-1.634-0.24-2.7v-6.12h-4.64
			c-0.187,1.521-0.5,2.913-0.94,4.181c-0.439,1.266-1.119,2.406-2.04,3.42c-0.92,1.013-2.14,1.906-3.66,2.68
			S626.814,542.857,624.441,543.391z M631.76,527.191h16v-2.4h-16V527.191z M631.76,521.151h16v-2.44h-16V521.151z M631.76,515.071
			h16v-2.4h-16V515.071z"/>
		<path stroke="#2B4C29" stroke-width="1.5" stroke-linejoin="round" stroke-miterlimit="2" d="M660.601,513.671
			c0.746-0.027,1.453-0.053,2.119-0.08c0.667-0.027,1.188-0.067,1.561-0.12c0.8-0.08,1.773-0.167,2.92-0.26s2.427-0.207,3.84-0.34
			c1.413-0.134,2.934-0.267,4.561-0.4c1.626-0.134,3.307-0.28,5.039-0.44c1.947-0.16,3.881-0.294,5.801-0.4s3.547-0.187,4.879-0.24
			l0.041,4.88c-0.508,0-1.074,0.006-1.7,0.02c-0.627,0.013-1.273,0.033-1.94,0.06c-0.666,0.026-1.313,0.073-1.939,0.14
			c-0.627,0.066-1.193,0.167-1.7,0.3c-1.147,0.293-2.207,0.8-3.181,1.52c-0.973,0.72-1.819,1.566-2.539,2.54
			c-0.721,0.973-1.28,2.02-1.68,3.14c-0.4,1.12-0.601,2.24-0.601,3.36c0,1.546,0.34,2.866,1.021,3.96
			c0.68,1.093,1.58,1.979,2.699,2.66c1.12,0.68,2.42,1.192,3.9,1.54c1.48,0.346,3.02,0.561,4.619,0.64l-1.76,5.24
			c-2-0.134-3.926-0.5-5.779-1.101c-1.854-0.6-3.494-1.439-4.92-2.52c-1.428-1.08-2.574-2.4-3.44-3.96
			c-0.866-1.56-1.3-3.367-1.3-5.42c0-1.36,0.173-2.64,0.52-3.84c0.348-1.2,0.787-2.3,1.32-3.3s1.127-1.88,1.779-2.64
			c0.654-0.76,1.301-1.38,1.941-1.86c-0.801,0.08-1.861,0.193-3.181,0.34c-1.319,0.146-2.72,0.306-4.2,0.48
			c-1.48,0.173-2.953,0.373-4.42,0.6s-2.746,0.46-3.84,0.7L660.601,513.671z"/>
		<path stroke="#2B4C29" stroke-width="1.5" stroke-linejoin="round" stroke-miterlimit="2" d="M710.601,524.911
			c0,1.2,0.039,2.313,0.119,3.34c0.08,1.026,0.188,2.006,0.32,2.94c0.934-0.934,1.807-1.98,2.62-3.14
			c0.813-1.16,1.526-2.514,2.14-4.06c-0.986,0.026-1.913,0.12-2.779,0.28c-0.867,0.16-1.674,0.347-2.42,0.56V524.911z
			 M703.4,535.671c1.067,0,2.32-0.414,3.761-1.24c-0.214-1.2-0.388-2.434-0.521-3.7s-0.227-2.554-0.279-3.86
			c-0.721,0.48-1.367,1.013-1.94,1.6c-0.573,0.586-1.067,1.187-1.479,1.8c-0.414,0.613-0.734,1.227-0.961,1.84
			s-0.34,1.187-0.34,1.721C701.64,535.058,702.227,535.671,703.4,535.671z M722.081,518.952c-0.106,0.213-0.214,0.5-0.32,0.86
			s-0.227,0.728-0.36,1.101c2.214,0.721,3.987,1.889,5.32,3.503c1.334,1.615,2,3.543,2,5.785c0,1.334-0.213,2.642-0.64,3.923
			s-1.134,2.456-2.12,3.522c-0.986,1.067-2.273,1.994-3.859,2.781c-1.588,0.787-3.541,1.354-5.861,1.699l-2.52-3.959
			c1.813-0.213,3.373-0.58,4.68-1.101c1.307-0.52,2.373-1.153,3.201-1.899c0.826-0.747,1.433-1.567,1.819-2.461
			c0.387-0.893,0.58-1.806,0.58-2.739c0-1.147-0.333-2.193-1-3.14s-1.64-1.66-2.92-2.14c-1.04,2.587-2.267,4.84-3.681,6.76
			c-1.412,1.919-2.84,3.48-4.279,4.679c0.133,0.508,0.273,0.994,0.42,1.461c0.146,0.465,0.3,0.924,0.46,1.373l-4.36,1.309
			c-0.08-0.24-0.166-0.486-0.26-0.74s-0.18-0.526-0.26-0.82c-0.934,0.453-1.887,0.827-2.86,1.121
			c-0.974,0.293-1.967,0.439-2.979,0.439c-0.693,0-1.354-0.107-1.98-0.32s-1.173-0.547-1.64-1s-0.833-1.033-1.101-1.74
			c-0.267-0.706-0.399-1.539-0.399-2.5c0-1.199,0.233-2.406,0.7-3.619c0.467-1.214,1.119-2.374,1.959-3.48
			c0.841-1.106,1.828-2.12,2.961-3.04c1.133-0.92,2.354-1.687,3.66-2.3c0.053-0.8,0.113-1.594,0.18-2.38
			c0.066-0.787,0.14-1.567,0.22-2.34h-1.239c-0.508,0-1.054-0.007-1.641-0.02c-0.587-0.014-1.18-0.034-1.779-0.06
			c-0.601-0.027-1.181-0.054-1.74-0.08c-0.561-0.027-1.067-0.054-1.521-0.08l-0.16-4.4c0.32,0.053,0.761,0.106,1.32,0.16
			c0.56,0.053,1.159,0.106,1.8,0.16c0.641,0.053,1.301,0.093,1.98,0.12c0.68,0.026,1.313,0.04,1.899,0.04h1.44l0.24-2
			c0.053-0.347,0.093-0.727,0.119-1.14c0.027-0.414,0.027-0.793,0-1.14l4.961,0.12c-0.24,0.64-0.428,1.313-0.561,2.02
			s-0.254,1.393-0.359,2.06c2.319-0.08,4.52-0.247,6.6-0.5s4.16-0.634,6.24-1.14l0.039,4.36c-1.84,0.373-3.953,0.666-6.34,0.88
			c-2.387,0.213-4.753,0.386-7.1,0.52c-0.053,0.56-0.107,1.12-0.16,1.68c-0.053,0.56-0.094,1.133-0.12,1.72
			c1.867-0.454,3.761-0.68,5.681-0.68h0.64c0.08-0.374,0.153-0.773,0.22-1.2c0.066-0.427,0.113-0.787,0.141-1.08L722.081,518.952z"
			/>
		<path stroke="#2B4C29" stroke-width="1.5" stroke-linejoin="round" stroke-miterlimit="2" d="M749.32,537.63
			c0.828,0,1.572-0.039,2.24-0.119c-0.132-1.227-0.527-2.214-1.18-2.96c-0.652-0.747-1.5-1.12-2.541-1.12
			c-0.691,0-1.252,0.18-1.68,0.54s-0.64,0.78-0.64,1.26c0,0.72,0.353,1.3,1.06,1.74C747.289,537.411,748.201,537.63,749.32,537.63z
			 M760.104,513.641c-0.456,0.294-0.899,0.582-1.34,0.863c-0.44,0.281-0.876,0.569-1.3,0.863c-0.508,0.348-1.12,0.81-1.84,1.385
			c-0.721,0.575-1.461,1.177-2.221,1.806c-0.76,0.628-1.52,1.258-2.279,1.887c-0.76,0.628-1.433,1.184-2.017,1.666
			c0.608-0.187,1.204-0.307,1.776-0.36c0.572-0.054,1.164-0.08,1.775-0.08c1.596,0,3.08,0.24,4.452,0.72s2.568,1.14,3.597,1.98
			c1.023,0.84,1.819,1.84,2.396,3c0.572,1.16,0.856,2.433,0.856,3.82c0,1.493-0.284,2.894-0.856,4.2
			c-0.576,1.306-1.424,2.44-2.556,3.399c-1.133,0.961-2.557,1.721-4.272,2.28c-1.72,0.56-3.724,0.841-6.012,0.841
			c-1.304,0-2.521-0.148-3.652-0.442s-2.112-0.716-2.936-1.264c-0.824-0.548-1.472-1.204-1.937-1.966
			c-0.468-0.764-0.699-1.613-0.699-2.549c0-0.776,0.168-1.519,0.5-2.229c0.332-0.708,0.795-1.337,1.396-1.885
			c0.601-0.549,1.319-0.984,2.155-1.305c0.841-0.321,1.753-0.481,2.736-0.481c1.172,0,2.225,0.167,3.156,0.5s1.736,0.787,2.416,1.36
			s1.225,1.253,1.637,2.04s0.699,1.633,0.859,2.54c2.068-1.12,3.104-2.84,3.104-5.16c0-0.854-0.199-1.624-0.6-2.311
			s-0.956-1.282-1.664-1.784s-1.544-0.885-2.508-1.149c-0.96-0.264-1.992-0.396-3.084-0.396c-1.439,0-2.775,0.187-4,0.56
			c-1.229,0.373-2.389,0.893-3.48,1.56c-1.096,0.666-2.14,1.473-3.14,2.42c-1,0.946-2.008,1.993-3.021,3.14l-3.439-3.56
			c0.664-0.56,1.432-1.194,2.301-1.9c0.863-0.707,1.739-1.427,2.619-2.16c0.881-0.734,1.721-1.44,2.52-2.12
			c0.801-0.68,1.48-1.247,2.041-1.7c0.531-0.454,1.16-0.967,1.879-1.54c0.721-0.573,1.445-1.167,2.181-1.78
			c0.731-0.614,1.44-1.207,2.12-1.78c0.68-0.574,1.26-1.06,1.74-1.46c-0.48,0-1.133,0.014-1.961,0.04
			c-0.823,0.026-1.691,0.06-2.596,0.1c-0.908,0.04-1.775,0.08-2.6,0.12c-0.828,0.04-1.496,0.086-2,0.14
			c-0.508,0.026-1.036,0.066-1.584,0.12c-0.544,0.053-1.044,0.12-1.5,0.2l-0.16-5c0.536,0.053,1.107,0.1,1.725,0.14
			c0.611,0.04,1.184,0.06,1.719,0.06c0.505,0,1.324-0.014,2.461-0.04c1.132-0.027,2.336-0.054,3.615-0.08
			c1.281-0.027,2.492-0.067,3.641-0.12c1.145-0.054,1.984-0.094,2.52-0.12c0.772-0.053,1.393-0.12,1.86-0.2
			c0.464-0.08,0.819-0.147,1.06-0.2L760.104,513.641z"/>
		<path stroke="#2B4C29" stroke-width="1.5" stroke-linejoin="round" stroke-miterlimit="2" d="M802.72,509.431v18.52h-4.561v-1.88
			h-7.439v10.68c0,0.8,0.128,1.307,0.38,1.52s0.828,0.32,1.731,0.32h5.461c0.424,0,0.768-0.066,1.031-0.2
			c0.268-0.134,0.473-0.407,0.62-0.821c0.144-0.413,0.257-0.987,0.337-1.721c0.079-0.734,0.159-1.701,0.239-2.902
			c0.508,0.374,1.181,0.727,2.021,1.061s1.567,0.567,2.18,0.701c-0.133,1.6-0.328,2.928-0.58,3.98
			c-0.252,1.055-0.607,1.895-1.061,2.521c-0.451,0.627-1.039,1.066-1.76,1.32c-0.72,0.254-1.628,0.381-2.72,0.381h-6.28
			c-1.199,0-2.199-0.094-3-0.281c-0.8-0.186-1.439-0.514-1.92-0.979c-0.48-0.467-0.82-1.093-1.02-1.88
			c-0.2-0.787-0.301-1.793-0.301-3.02v-15h12.08v-8H786v-4.32H802.72z M770.6,529.631h12.239v11.6h-8.319v1.479h-3.92V529.631z
			 M768.881,513.831l15.64-0.04v3.64h-15.64V513.831z M782.961,519.151v3.48h-12.28v-3.48H782.961z M770.92,508.711h12.16v3.44
			h-12.16V508.711z M770.68,527.791v-3.36h12.28v3.36H770.68z M774.52,537.671h4.36v-4.4h-4.36V537.671z"/>
	</g>
	<g transform="matrix(1,0,0,1,-153.441,-252.046)">
		<path fill="#1FBC1D" stroke="#FFFFFF" stroke-width="0.5" stroke-linejoin="round" stroke-miterlimit="2" d="M464.841,543.191
			v-14.16h27.28v14.08h-4.48v-0.8h-18.56v0.88H464.841z M489.521,519.711v7.96h-22.08v-7.96H489.521z M462.161,518.071v-8.36h13.8
			v-2.2h4.64v2.2h14.2v8.36h-4.56v-4.56h-23.76v4.56H462.161z M468.041,518.311v-3.12h20.68v3.12H468.041z M471.561,524.711h13.56
			v-2h-13.56V524.711z M487.64,539.031v-1.959h-7.2v1.959H487.64z M476.041,539.031v-1.959h-6.96v1.959H476.041z M487.64,534.231
			v-1.84h-7.2v1.84H487.64z M476.041,534.231v-1.84h-6.96v1.84H476.041z"/>
		<path fill="#1FBC1D" stroke="#FFFFFF" stroke-width="0.5" stroke-linejoin="round" stroke-miterlimit="2" d="M504.6,516.831v18.76
			h8.32v-27h4.72v27h8.68v-18.84h4.72v25.92h-4.72v-2.4H504.6v2.52h-4.64v-25.959H504.6z"/>
		<path fill="#1FBC1D" stroke="#FFFFFF" stroke-width="0.5" stroke-linejoin="round" stroke-miterlimit="2" d="M566.361,508.431
			c0.56,1.12,1.24,2.28,2.04,3.48c0.8,1.2,1.647,2.373,2.54,3.52c0.893,1.146,1.813,2.24,2.76,3.28c0.946,1.04,1.86,1.96,2.74,2.76
			c-0.293,0.24-0.62,0.52-0.98,0.84c-0.36,0.32-0.713,0.66-1.06,1.02c-0.347,0.36-0.68,0.727-1,1.1c-0.32,0.373-0.586,0.72-0.8,1.04
			c-0.906-0.96-1.847-2.047-2.819-3.26c-0.974-1.213-1.934-2.48-2.88-3.8s-1.853-2.674-2.72-4.06
			c-0.866-1.387-1.646-2.733-2.34-4.04L566.361,508.431z M556.281,509.871c-0.613,1.493-1.313,2.973-2.101,4.44
			c-0.787,1.466-1.633,2.873-2.54,4.22c-0.906,1.346-1.847,2.606-2.82,3.78s-1.94,2.213-2.9,3.12c-0.24-0.24-0.54-0.52-0.9-0.84
			c-0.36-0.32-0.747-0.64-1.16-0.96c-0.413-0.32-0.82-0.62-1.22-0.9c-0.399-0.28-0.76-0.514-1.08-0.7
			c0.987-0.774,1.94-1.674,2.86-2.7c0.92-1.027,1.793-2.134,2.62-3.32c0.827-1.187,1.58-2.427,2.26-3.72
			c0.68-1.293,1.273-2.607,1.78-3.94L556.281,509.871z M566.921,527.751c0.827,1.04,1.66,2.14,2.5,3.3
			c0.84,1.16,1.653,2.319,2.44,3.479s1.507,2.287,2.16,3.381c0.653,1.093,1.22,2.105,1.7,3.039l-4.76,2.48
			c-0.187-0.453-0.413-0.94-0.68-1.46c-0.267-0.521-0.561-1.06-0.88-1.62c-2.293,0.16-4.6,0.313-6.92,0.46
			c-2.32,0.146-4.58,0.286-6.78,0.42c-2.2,0.134-4.307,0.253-6.32,0.36c-2.013,0.105-3.86,0.199-5.54,0.279l-0.6-4.799l5.32-0.201
			c0.613-1.119,1.227-2.333,1.84-3.64s1.207-2.633,1.78-3.98s1.113-2.687,1.62-4.02s0.934-2.6,1.28-3.8l5.48,1.28
			c-1.013,2.347-2.107,4.74-3.28,7.18c-1.174,2.44-2.347,4.7-3.521,6.78c2.08-0.107,4.213-0.214,6.4-0.32
			c2.187-0.107,4.4-0.227,6.64-0.359c-0.693-1.067-1.413-2.127-2.16-3.181c-0.747-1.054-1.467-2.047-2.16-2.98L566.921,527.751z"/>
		<path fill="#1FBC1D" stroke="#FFFFFF" stroke-width="0.5" stroke-linejoin="round" stroke-miterlimit="2" d="M581.201,508.991
			h32.6v34.24h-4.44v-1.36h-23.88v1.36h-4.28V508.991z M609.361,537.79v-24.719h-23.88v24.719H609.361z M585.881,533.311
			c1.6-0.454,3.167-1.027,4.7-1.72c1.533-0.694,2.913-1.467,4.14-2.32h-6v-6.52h17.64v5.92l1.92,1.24
			c-0.613,0.48-1.26,0.94-1.94,1.38c-0.68,0.44-1.34,0.847-1.98,1.22c0.693,0.346,1.427,0.652,2.2,0.92
			c0.773,0.266,1.547,0.493,2.32,0.68c-0.373,0.347-0.793,0.801-1.26,1.36s-0.807,1.066-1.02,1.521
			c-1.414-0.454-2.78-1.055-4.1-1.801c-1.32-0.746-2.54-1.586-3.66-2.52v4.279h-3.96v-3.959c-2.133,1.279-4.307,2.332-6.52,3.159
			c-0.107-0.187-0.267-0.407-0.48-0.659c-0.213-0.254-0.433-0.514-0.66-0.781c-0.227-0.266-0.46-0.526-0.7-0.779
			C586.281,533.677,586.067,533.471,585.881,533.311z M595.32,519.031v-1.44h-6.76v-2.44h6.76v-1.64h4.12v1.64h7.04v2.44h-7.04v1.44
			h8.6v2.56h-21.28v-2.56H595.32z M592.521,526.991h9.84v-1.92h-9.84V526.991z M599.68,529.391c0.293,0.293,0.613,0.58,0.96,0.86
			c0.347,0.28,0.72,0.553,1.12,0.82c0.827-0.534,1.653-1.134,2.48-1.8h-4.48L599.68,529.391z"/>
		<path fill="#1FBC1D" stroke="#FFFFFF" stroke-width="0.5" stroke-linejoin="round" stroke-miterlimit="2" d="M624.441,543.391
			c-0.213-0.614-0.573-1.32-1.08-2.12s-0.987-1.439-1.44-1.92c1.973-0.373,3.573-0.813,4.8-1.32c1.227-0.506,2.213-1.1,2.96-1.779
			c0.747-0.68,1.287-1.44,1.62-2.28c0.333-0.841,0.58-1.78,0.74-2.82h-4.68v-22.44h25.04v22.44h-6.199v6.08
			c0,0.613,0.093,0.993,0.278,1.14s0.649,0.221,1.392,0.221h3.939c0.318,0,0.583-0.054,0.795-0.16c0.213-0.107,0.379-0.34,0.498-0.7
			s0.205-0.874,0.258-1.54c0.054-0.666,0.107-1.561,0.16-2.68c0.239,0.186,0.539,0.373,0.899,0.561
			c0.36,0.186,0.733,0.359,1.12,0.52s0.767,0.3,1.141,0.42c0.373,0.119,0.706,0.22,1,0.3c-0.107,1.521-0.281,2.767-0.521,3.74
			c-0.24,0.974-0.567,1.753-0.979,2.34c-0.414,0.587-0.941,0.993-1.58,1.22c-0.641,0.227-1.428,0.34-2.361,0.34h-5.079
			c-1.12,0-2.047-0.094-2.78-0.279c-0.732-0.188-1.307-0.5-1.72-0.94s-0.7-1.026-0.86-1.76s-0.24-1.634-0.24-2.7v-6.12h-4.64
			c-0.187,1.521-0.5,2.913-0.94,4.181c-0.439,1.266-1.119,2.406-2.04,3.42c-0.92,1.013-2.14,1.906-3.66,2.68
			S626.814,542.857,624.441,543.391z M631.76,527.191h16v-2.4h-16V527.191z M631.76,521.151h16v-2.44h-16V521.151z M631.76,515.071
			h16v-2.4h-16V515.071z"/>
		<path fill="#1FBC1D" stroke="#FFFFFF" stroke-width="0.5" stroke-linejoin="round" stroke-miterlimit="2" d="M660.601,513.671
			c0.746-0.027,1.453-0.053,2.119-0.08c0.667-0.027,1.188-0.067,1.561-0.12c0.8-0.08,1.773-0.167,2.92-0.26s2.427-0.207,3.84-0.34
			c1.413-0.134,2.934-0.267,4.561-0.4c1.626-0.134,3.307-0.28,5.039-0.44c1.947-0.16,3.881-0.294,5.801-0.4s3.547-0.187,4.879-0.24
			l0.041,4.88c-0.508,0-1.074,0.006-1.7,0.02c-0.627,0.013-1.273,0.033-1.94,0.06c-0.666,0.026-1.313,0.073-1.939,0.14
			c-0.627,0.066-1.193,0.167-1.7,0.3c-1.147,0.293-2.207,0.8-3.181,1.52c-0.973,0.72-1.819,1.566-2.539,2.54
			c-0.721,0.973-1.28,2.02-1.68,3.14c-0.4,1.12-0.601,2.24-0.601,3.36c0,1.546,0.34,2.866,1.021,3.96
			c0.68,1.093,1.58,1.979,2.699,2.66c1.12,0.68,2.42,1.192,3.9,1.54c1.48,0.346,3.02,0.561,4.619,0.64l-1.76,5.24
			c-2-0.134-3.926-0.5-5.779-1.101c-1.854-0.6-3.494-1.439-4.92-2.52c-1.428-1.08-2.574-2.4-3.44-3.96
			c-0.866-1.56-1.3-3.367-1.3-5.42c0-1.36,0.173-2.64,0.52-3.84c0.348-1.2,0.787-2.3,1.32-3.3s1.127-1.88,1.779-2.64
			c0.654-0.76,1.301-1.38,1.941-1.86c-0.801,0.08-1.861,0.193-3.181,0.34c-1.319,0.146-2.72,0.306-4.2,0.48
			c-1.48,0.173-2.953,0.373-4.42,0.6s-2.746,0.46-3.84,0.7L660.601,513.671z"/>
		<path fill="#1FBC1D" stroke="#FFFFFF" stroke-width="0.5" stroke-linejoin="round" stroke-miterlimit="2" d="M710.601,524.911
			c0,1.2,0.039,2.313,0.119,3.34c0.08,1.026,0.188,2.006,0.32,2.94c0.934-0.934,1.807-1.98,2.62-3.14
			c0.813-1.16,1.526-2.514,2.14-4.06c-0.986,0.026-1.913,0.12-2.779,0.28c-0.867,0.16-1.674,0.347-2.42,0.56V524.911z
			 M703.4,535.671c1.067,0,2.32-0.414,3.761-1.24c-0.214-1.2-0.388-2.434-0.521-3.7s-0.227-2.554-0.279-3.86
			c-0.721,0.48-1.367,1.013-1.94,1.6c-0.573,0.586-1.067,1.187-1.479,1.8c-0.414,0.613-0.734,1.227-0.961,1.84
			s-0.34,1.187-0.34,1.721C701.64,535.058,702.227,535.671,703.4,535.671z M722.081,518.952c-0.106,0.213-0.214,0.5-0.32,0.86
			s-0.227,0.728-0.36,1.101c2.214,0.721,3.987,1.889,5.32,3.503c1.334,1.615,2,3.543,2,5.785c0,1.334-0.213,2.642-0.64,3.923
			s-1.134,2.456-2.12,3.522c-0.986,1.067-2.273,1.994-3.859,2.781c-1.588,0.787-3.541,1.354-5.861,1.699l-2.52-3.959
			c1.813-0.213,3.373-0.58,4.68-1.101c1.307-0.52,2.373-1.153,3.201-1.899c0.826-0.747,1.433-1.567,1.819-2.461
			c0.387-0.893,0.58-1.806,0.58-2.739c0-1.147-0.333-2.193-1-3.14s-1.64-1.66-2.92-2.14c-1.04,2.587-2.267,4.84-3.681,6.76
			c-1.412,1.919-2.84,3.48-4.279,4.679c0.133,0.508,0.273,0.994,0.42,1.461c0.146,0.465,0.3,0.924,0.46,1.373l-4.36,1.309
			c-0.08-0.24-0.166-0.486-0.26-0.74s-0.18-0.526-0.26-0.82c-0.934,0.453-1.887,0.827-2.86,1.121
			c-0.974,0.293-1.967,0.439-2.979,0.439c-0.693,0-1.354-0.107-1.98-0.32s-1.173-0.547-1.64-1s-0.833-1.033-1.101-1.74
			c-0.267-0.706-0.399-1.539-0.399-2.5c0-1.199,0.233-2.406,0.7-3.619c0.467-1.214,1.119-2.374,1.959-3.48
			c0.841-1.106,1.828-2.12,2.961-3.04c1.133-0.92,2.354-1.687,3.66-2.3c0.053-0.8,0.113-1.594,0.18-2.38
			c0.066-0.787,0.14-1.567,0.22-2.34h-1.239c-0.508,0-1.054-0.007-1.641-0.02c-0.587-0.014-1.18-0.034-1.779-0.06
			c-0.601-0.027-1.181-0.054-1.74-0.08c-0.561-0.027-1.067-0.054-1.521-0.08l-0.16-4.4c0.32,0.053,0.761,0.106,1.32,0.16
			c0.56,0.053,1.159,0.106,1.8,0.16c0.641,0.053,1.301,0.093,1.98,0.12c0.68,0.026,1.313,0.04,1.899,0.04h1.44l0.24-2
			c0.053-0.347,0.093-0.727,0.119-1.14c0.027-0.414,0.027-0.793,0-1.14l4.961,0.12c-0.24,0.64-0.428,1.313-0.561,2.02
			s-0.254,1.393-0.359,2.06c2.319-0.08,4.52-0.247,6.6-0.5s4.16-0.634,6.24-1.14l0.039,4.36c-1.84,0.373-3.953,0.666-6.34,0.88
			c-2.387,0.213-4.753,0.386-7.1,0.52c-0.053,0.56-0.107,1.12-0.16,1.68c-0.053,0.56-0.094,1.133-0.12,1.72
			c1.867-0.454,3.761-0.68,5.681-0.68h0.64c0.08-0.374,0.153-0.773,0.22-1.2c0.066-0.427,0.113-0.787,0.141-1.08L722.081,518.952z"
			/>
		<path fill="#1FBC1D" stroke="#FFFFFF" stroke-width="0.5" stroke-linejoin="round" stroke-miterlimit="2" d="M749.32,537.63
			c0.828,0,1.572-0.039,2.24-0.119c-0.132-1.227-0.527-2.214-1.18-2.96c-0.652-0.747-1.5-1.12-2.541-1.12
			c-0.691,0-1.252,0.18-1.68,0.54s-0.64,0.78-0.64,1.26c0,0.72,0.353,1.3,1.06,1.74C747.289,537.411,748.201,537.63,749.32,537.63z
			 M760.104,513.641c-0.456,0.294-0.899,0.582-1.34,0.863c-0.44,0.281-0.876,0.569-1.3,0.863c-0.508,0.348-1.12,0.81-1.84,1.385
			c-0.721,0.575-1.461,1.177-2.221,1.806c-0.76,0.628-1.52,1.258-2.279,1.887c-0.76,0.628-1.433,1.184-2.017,1.666
			c0.608-0.187,1.204-0.307,1.776-0.36c0.572-0.054,1.164-0.08,1.775-0.08c1.596,0,3.08,0.24,4.452,0.72s2.568,1.14,3.597,1.98
			c1.023,0.84,1.819,1.84,2.396,3c0.572,1.16,0.856,2.433,0.856,3.82c0,1.493-0.284,2.894-0.856,4.2
			c-0.576,1.306-1.424,2.44-2.556,3.399c-1.133,0.961-2.557,1.721-4.272,2.28c-1.72,0.56-3.724,0.841-6.012,0.841
			c-1.304,0-2.521-0.148-3.652-0.442s-2.112-0.716-2.936-1.264c-0.824-0.548-1.472-1.204-1.937-1.966
			c-0.468-0.764-0.699-1.613-0.699-2.549c0-0.776,0.168-1.519,0.5-2.229c0.332-0.708,0.795-1.337,1.396-1.885
			c0.601-0.549,1.319-0.984,2.155-1.305c0.841-0.321,1.753-0.481,2.736-0.481c1.172,0,2.225,0.167,3.156,0.5s1.736,0.787,2.416,1.36
			s1.225,1.253,1.637,2.04s0.699,1.633,0.859,2.54c2.068-1.12,3.104-2.84,3.104-5.16c0-0.854-0.199-1.624-0.6-2.311
			s-0.956-1.282-1.664-1.784s-1.544-0.885-2.508-1.149c-0.96-0.264-1.992-0.396-3.084-0.396c-1.439,0-2.775,0.187-4,0.56
			c-1.229,0.373-2.389,0.893-3.48,1.56c-1.096,0.666-2.14,1.473-3.14,2.42c-1,0.946-2.008,1.993-3.021,3.14l-3.439-3.56
			c0.664-0.56,1.432-1.194,2.301-1.9c0.863-0.707,1.739-1.427,2.619-2.16c0.881-0.734,1.721-1.44,2.52-2.12
			c0.801-0.68,1.48-1.247,2.041-1.7c0.531-0.454,1.16-0.967,1.879-1.54c0.721-0.573,1.445-1.167,2.181-1.78
			c0.731-0.614,1.44-1.207,2.12-1.78c0.68-0.574,1.26-1.06,1.74-1.46c-0.48,0-1.133,0.014-1.961,0.04
			c-0.823,0.026-1.691,0.06-2.596,0.1c-0.908,0.04-1.775,0.08-2.6,0.12c-0.828,0.04-1.496,0.086-2,0.14
			c-0.508,0.026-1.036,0.066-1.584,0.12c-0.544,0.053-1.044,0.12-1.5,0.2l-0.16-5c0.536,0.053,1.107,0.1,1.725,0.14
			c0.611,0.04,1.184,0.06,1.719,0.06c0.505,0,1.324-0.014,2.461-0.04c1.132-0.027,2.336-0.054,3.615-0.08
			c1.281-0.027,2.492-0.067,3.641-0.12c1.145-0.054,1.984-0.094,2.52-0.12c0.772-0.053,1.393-0.12,1.86-0.2
			c0.464-0.08,0.819-0.147,1.06-0.2L760.104,513.641z"/>
		<path fill="#1FBC1D" stroke="#FFFFFF" stroke-width="0.5" stroke-linejoin="round" stroke-miterlimit="2" d="M802.72,509.431
			v18.52h-4.561v-1.88h-7.439v10.68c0,0.8,0.128,1.307,0.38,1.52s0.828,0.32,1.731,0.32h5.461c0.424,0,0.768-0.066,1.031-0.2
			c0.268-0.134,0.473-0.407,0.62-0.821c0.144-0.413,0.257-0.987,0.337-1.721c0.079-0.734,0.159-1.701,0.239-2.902
			c0.508,0.374,1.181,0.727,2.021,1.061s1.567,0.567,2.18,0.701c-0.133,1.6-0.328,2.928-0.58,3.98
			c-0.252,1.055-0.607,1.895-1.061,2.521c-0.451,0.627-1.039,1.066-1.76,1.32c-0.72,0.254-1.628,0.381-2.72,0.381h-6.28
			c-1.199,0-2.199-0.094-3-0.281c-0.8-0.186-1.439-0.514-1.92-0.979c-0.48-0.467-0.82-1.093-1.02-1.88
			c-0.2-0.787-0.301-1.793-0.301-3.02v-15h12.08v-8H786v-4.32H802.72z M770.6,529.631h12.239v11.6h-8.319v1.479h-3.92V529.631z
			 M768.881,513.831l15.64-0.04v3.64h-15.64V513.831z M782.961,519.151v3.48h-12.28v-3.48H782.961z M770.92,508.711h12.16v3.44
			h-12.16V508.711z M770.68,527.791v-3.36h12.28v3.36H770.68z M774.52,537.671h4.36v-4.4h-4.36V537.671z"/>
	</g>
</g>
</svg>
