<?xml version="1.0" encoding="UTF-8" standalone="no"?>
<!DOCTYPE svg PUBLIC "-//W3C//DTD SVG 1.1//EN" "http://www.w3.org/Graphics/SVG/1.1/DTD/svg11.dtd">
<svg width="100%" height="100%" viewBox="0 0 1200 180" version="1.1" xmlns="http://www.w3.org/2000/svg" xmlns:xlink="http://www.w3.org/1999/xlink" xml:space="preserve" xmlns:serif="http://www.serif.com/" style="fill-rule:evenodd;clip-rule:evenodd;stroke-linejoin:round;stroke-miterlimit:2;">
    <g id="アートボード1" transform="matrix(0.988393,0,0,1.03956,-70.5586,-1.13924)">
        <rect x="71.387" y="1.096" width="1214.09" height="173.151" style="fill:none;"/>
    </g>
    <g id="帯" transform="matrix(1,0,0,1,-40,-352.214)">
        <g>
            <g transform="matrix(0.816422,0,0,1.01449,3.62422,-208.206)">
                <path d="M85,719L303,716L303,650L83,650L121,685.486L85,719Z" style="fill:url(#_Linear1);"/>
            </g>
            <g transform="matrix(1,0,0,1,-31,-91.7862)">
                <path d="M203,578L282,606.957L282,578L203,578Z" style="fill:rgb(242,175,13);"/>
            </g>
        </g>
        <g transform="matrix(-1,0,0,1,1295.54,0)">
            <g transform="matrix(0.816422,0,0,1.01449,3.62422,-208.206)">
                <path d="M85,719L303,716L303,650L83,650L121,685.486L85,719Z" style="fill:url(#_Linear2);"/>
            </g>
            <g transform="matrix(1,0,0,1,-31,-91.7862)">
                <path d="M203,578L282,606.957L282,578L203,578Z" style="fill:rgb(242,175,13);"/>
            </g>
        </g>
        <g transform="matrix(4.40527,0,0,1.45833,-625.354,-289.62)">
            <rect x="181" y="484" width="216" height="48" style="fill:url(#_Linear3);"/>
        </g>
    </g>
    <g id="黒" transform="matrix(1,0,0,1,-153.441,-252.046)">
        <path d="M331.941,369.908L331.941,334.508L400.141,334.508L400.141,369.708L388.941,369.708L388.941,367.708L342.541,367.708L342.541,369.908L331.941,369.908ZM393.641,311.208L393.641,331.108L338.441,331.108L338.441,311.208L393.641,311.208ZM325.241,307.108L325.241,286.208L359.741,286.208L359.741,280.708L371.341,280.708L371.341,286.208L406.841,286.208L406.841,307.108L395.441,307.108L395.441,295.708L336.041,295.708L336.041,307.108L325.241,307.108ZM339.941,307.708L339.941,299.908L391.641,299.908L391.641,307.708L339.941,307.708ZM348.741,323.708L382.641,323.708L382.641,318.708L348.741,318.708L348.741,323.708ZM388.941,359.508L388.941,354.608L370.941,354.608L370.941,359.508L388.941,359.508ZM359.941,359.508L359.941,354.608L342.541,354.608L342.541,359.508L359.941,359.508ZM388.941,347.508L388.941,342.908L370.941,342.908L370.941,347.508L388.941,347.508ZM359.941,347.508L359.941,342.908L342.541,342.908L342.541,347.508L359.941,347.508Z" style="fill-rule:nonzero;stroke:black;stroke-width:12px;"/>
        <path d="M431.341,304.008L431.341,350.908L452.141,350.908L452.141,283.408L463.941,283.408L463.941,350.908L485.641,350.908L485.641,303.808L497.441,303.808L497.441,368.608L485.641,368.608L485.641,362.608L431.341,362.608L431.341,368.908L419.741,368.908L419.741,304.008L431.341,304.008Z" style="fill-rule:nonzero;stroke:black;stroke-width:12px;"/>
        <path d="M585.741,283.008C587.141,285.808 588.841,288.708 590.841,291.708C592.841,294.708 594.958,297.641 597.191,300.508C599.424,303.374 601.724,306.108 604.091,308.708C606.458,311.308 608.741,313.608 610.941,315.608C610.208,316.208 609.391,316.908 608.491,317.708C607.591,318.508 606.708,319.358 605.841,320.258C604.974,321.158 604.141,322.074 603.341,323.008C602.541,323.941 601.874,324.808 601.341,325.608C599.074,323.208 596.724,320.491 594.291,317.458C591.858,314.424 589.458,311.258 587.091,307.958C584.724,304.658 582.458,301.274 580.291,297.808C578.124,294.341 576.174,290.974 574.441,287.708L585.741,283.008ZM560.541,286.608C559.008,290.341 557.258,294.041 555.291,297.708C553.324,301.374 551.208,304.891 548.941,308.258C546.674,311.624 544.324,314.774 541.891,317.708C539.458,320.641 537.041,323.241 534.641,325.508C534.041,324.908 533.291,324.208 532.391,323.408C531.491,322.608 530.524,321.808 529.491,321.008C528.458,320.208 527.441,319.458 526.441,318.758C525.441,318.058 524.541,317.474 523.741,317.008C526.208,315.074 528.591,312.824 530.891,310.258C533.191,307.691 535.374,304.924 537.441,301.958C539.508,298.991 541.391,295.891 543.091,292.658C544.791,289.424 546.274,286.141 547.541,282.808L560.541,286.608ZM587.141,331.308C589.208,333.908 591.291,336.658 593.391,339.558C595.491,342.458 597.524,345.358 599.491,348.258C601.458,351.158 603.258,353.974 604.891,356.708C606.524,359.441 607.941,361.974 609.141,364.308L597.241,370.508C596.774,369.374 596.208,368.158 595.541,366.858C594.874,365.558 594.141,364.208 593.341,362.808C587.608,363.208 581.841,363.591 576.041,363.958C570.241,364.324 564.591,364.674 559.091,365.008C553.591,365.341 548.324,365.641 543.291,365.908C538.258,366.174 533.641,366.408 529.441,366.608L527.941,354.608L541.241,354.108C542.774,351.308 544.308,348.274 545.841,345.008C547.374,341.741 548.858,338.424 550.291,335.058C551.724,331.691 553.074,328.341 554.341,325.008C555.608,321.674 556.674,318.508 557.541,315.508L571.241,318.708C568.708,324.574 565.974,330.558 563.041,336.658C560.108,342.758 557.174,348.408 554.241,353.608C559.441,353.341 564.774,353.074 570.241,352.808C575.708,352.541 581.241,352.241 586.841,351.908C585.108,349.241 583.308,346.591 581.441,343.958C579.574,341.324 577.774,338.841 576.041,336.508L587.141,331.308Z" style="fill-rule:nonzero;stroke:black;stroke-width:12px;"/>
        <path d="M622.841,284.408L704.341,284.408L704.341,370.008L693.241,370.008L693.241,366.608L633.541,366.608L633.541,370.008L622.841,370.008L622.841,284.408ZM693.241,356.408L693.241,294.608L633.541,294.608L633.541,356.408L693.241,356.408ZM634.541,345.208C638.541,344.074 642.458,342.641 646.291,340.908C650.124,339.174 653.574,337.241 656.641,335.108L641.641,335.108L641.641,318.808L685.741,318.808L685.741,333.608L690.541,336.708C689.008,337.908 687.391,339.058 685.691,340.158C683.991,341.258 682.341,342.274 680.741,343.208C682.474,344.074 684.308,344.841 686.241,345.508C688.174,346.174 690.108,346.741 692.041,347.208C691.108,348.074 690.058,349.208 688.891,350.608C687.724,352.008 686.874,353.274 686.341,354.408C682.808,353.274 679.391,351.774 676.091,349.908C672.791,348.041 669.741,345.941 666.941,343.608L666.941,354.308L657.041,354.308L657.041,344.408C651.708,347.608 646.274,350.241 640.741,352.308C640.474,351.841 640.074,351.291 639.541,350.658C639.008,350.024 638.458,349.374 637.891,348.708C637.324,348.041 636.741,347.391 636.141,346.758C635.541,346.124 635.008,345.608 634.541,345.208ZM658.141,309.508L658.141,305.908L641.241,305.908L641.241,299.808L658.141,299.808L658.141,295.708L668.441,295.708L668.441,299.808L686.041,299.808L686.041,305.908L668.441,305.908L668.441,309.508L689.941,309.508L689.941,315.908L636.741,315.908L636.741,309.508L658.141,309.508ZM651.141,329.408L675.741,329.408L675.741,324.608L651.141,324.608L651.141,329.408ZM669.041,335.408C669.774,336.141 670.574,336.858 671.441,337.558C672.308,338.258 673.241,338.941 674.241,339.608C676.308,338.274 678.374,336.774 680.441,335.108L669.241,335.108L669.041,335.408Z" style="fill-rule:nonzero;stroke:black;stroke-width:12px;"/>
        <path d="M730.941,370.408C730.408,368.874 729.508,367.108 728.241,365.108C726.974,363.108 725.774,361.508 724.641,360.308C729.574,359.374 733.574,358.274 736.641,357.008C739.708,355.741 742.174,354.258 744.041,352.558C745.908,350.858 747.258,348.958 748.091,346.858C748.924,344.758 749.541,342.408 749.941,339.808L738.241,339.808L738.241,283.708L800.841,283.708L800.841,339.808L785.341,339.808L785.341,355.008C785.341,356.541 785.573,357.491 786.037,357.858C786.501,358.224 787.661,358.408 789.518,358.408L799.365,358.408C800.16,358.408 800.823,358.274 801.354,358.008C801.884,357.741 802.298,357.158 802.597,356.258C802.895,355.358 803.111,354.074 803.243,352.408C803.376,350.741 803.509,348.508 803.641,345.708C804.241,346.174 804.991,346.641 805.891,347.108C806.791,347.574 807.724,348.008 808.691,348.408C809.658,348.808 810.608,349.158 811.541,349.458C812.474,349.758 813.308,350.008 814.041,350.208C813.774,354.008 813.341,357.124 812.741,359.558C812.141,361.991 811.324,363.941 810.291,365.408C809.258,366.874 807.941,367.891 806.341,368.458C804.741,369.024 802.774,369.308 800.441,369.308L787.741,369.308C784.941,369.308 782.624,369.074 780.791,368.608C778.958,368.141 777.524,367.358 776.491,366.258C775.458,365.158 774.741,363.691 774.341,361.858C773.941,360.024 773.741,357.774 773.741,355.108L773.741,339.808L762.141,339.808C761.674,343.608 760.891,347.091 759.791,350.258C758.691,353.424 756.991,356.274 754.691,358.808C752.391,361.341 749.341,363.574 745.541,365.508C741.741,367.441 736.874,369.074 730.941,370.408ZM749.241,329.908L789.241,329.908L789.241,323.908L749.241,323.908L749.241,329.908ZM749.241,314.808L789.241,314.808L789.241,308.708L749.241,308.708L749.241,314.808ZM749.241,299.608L789.241,299.608L789.241,293.608L749.241,293.608L749.241,299.608Z" style="fill-rule:nonzero;stroke:black;stroke-width:12px;"/>
        <path d="M821.341,296.108C823.208,296.041 824.974,295.974 826.641,295.908C828.308,295.841 829.608,295.741 830.541,295.608C832.541,295.408 834.974,295.191 837.841,294.958C840.708,294.724 843.908,294.441 847.441,294.108C850.974,293.774 854.774,293.441 858.841,293.108C862.908,292.774 867.108,292.408 871.441,292.008C876.308,291.608 881.141,291.274 885.941,291.008C890.741,290.741 894.808,290.541 898.141,290.408L898.241,302.608C896.974,302.608 895.558,302.624 893.991,302.658C892.424,302.691 890.808,302.741 889.141,302.808C887.474,302.874 885.858,302.991 884.291,303.158C882.724,303.324 881.308,303.574 880.041,303.908C877.174,304.641 874.524,305.908 872.091,307.708C869.658,309.508 867.541,311.624 865.741,314.058C863.941,316.491 862.541,319.108 861.541,321.908C860.541,324.708 860.041,327.508 860.041,330.308C860.041,334.174 860.891,337.474 862.591,340.208C864.291,342.941 866.541,345.158 869.341,346.858C872.141,348.558 875.391,349.841 879.091,350.708C882.791,351.574 886.641,352.108 890.641,352.308L886.241,365.408C881.241,365.074 876.424,364.158 871.791,362.658C867.158,361.158 863.058,359.058 859.491,356.358C855.924,353.658 853.058,350.358 850.891,346.458C848.724,342.558 847.641,338.041 847.641,332.908C847.641,329.508 848.074,326.308 848.941,323.308C849.808,320.308 850.908,317.558 852.241,315.058C853.574,312.558 855.058,310.358 856.691,308.458C858.324,306.558 859.941,305.008 861.541,303.808C859.541,304.008 856.891,304.291 853.591,304.658C850.291,305.024 846.791,305.424 843.091,305.858C839.391,306.291 835.708,306.791 832.041,307.358C828.374,307.924 825.174,308.508 822.441,309.108L821.341,296.108Z" style="fill-rule:nonzero;stroke:black;stroke-width:12px;"/>
        <path d="M946.341,324.208C946.341,327.208 946.441,329.991 946.641,332.558C946.841,335.124 947.108,337.574 947.441,339.908C949.774,337.574 951.958,334.958 953.991,332.058C956.024,329.158 957.808,325.774 959.341,321.908C956.874,321.974 954.558,322.208 952.391,322.608C950.224,323.008 948.208,323.474 946.341,324.008L946.341,324.208ZM928.341,351.108C931.008,351.108 934.141,350.074 937.741,348.008C937.208,345.008 936.774,341.924 936.441,338.758C936.108,335.591 935.874,332.374 935.741,329.108C933.941,330.308 932.324,331.641 930.891,333.108C929.458,334.574 928.224,336.074 927.191,337.608C926.158,339.141 925.358,340.674 924.791,342.208C924.224,343.741 923.941,345.174 923.941,346.508C923.941,349.574 925.408,351.108 928.341,351.108ZM975.041,309.311C974.774,309.844 974.508,310.561 974.241,311.462C973.974,312.363 973.674,313.281 973.341,314.214C978.874,316.016 983.308,318.936 986.641,322.973C989.974,327.01 991.641,331.831 991.641,337.436C991.641,340.771 991.108,344.041 990.041,347.244C988.974,350.447 987.208,353.383 984.741,356.051C982.274,358.719 979.058,361.036 975.091,363.003C971.124,364.97 966.241,366.386 960.441,367.253L954.141,357.353C958.674,356.82 962.574,355.903 965.841,354.603C969.108,353.303 971.774,351.72 973.841,349.853C975.908,347.986 977.424,345.936 978.391,343.703C979.358,341.47 979.841,339.186 979.841,336.853C979.841,333.986 979.008,331.37 977.341,329.003C975.674,326.636 973.241,324.853 970.041,323.653C967.441,330.12 964.374,335.753 960.841,340.553C957.308,345.353 953.741,349.253 950.141,352.253C950.474,353.52 950.824,354.736 951.191,355.902C951.558,357.067 951.941,358.212 952.341,359.336L941.441,362.608C941.241,362.008 941.024,361.391 940.791,360.758C940.558,360.124 940.341,359.441 940.141,358.708C937.808,359.841 935.424,360.774 932.991,361.508C930.558,362.241 928.074,362.608 925.541,362.608C923.808,362.608 922.158,362.341 920.591,361.808C919.024,361.274 917.658,360.441 916.491,359.308C915.324,358.174 914.408,356.724 913.741,354.958C913.074,353.191 912.741,351.108 912.741,348.708C912.741,345.708 913.324,342.691 914.491,339.658C915.658,336.624 917.291,333.724 919.391,330.958C921.491,328.191 923.958,325.658 926.791,323.358C929.624,321.058 932.674,319.141 935.941,317.608C936.074,315.608 936.224,313.624 936.391,311.658C936.558,309.691 936.741,307.741 936.941,305.808L933.841,305.808C932.574,305.808 931.208,305.791 929.741,305.758C928.274,305.724 926.791,305.674 925.291,305.608C923.791,305.541 922.341,305.474 920.941,305.408C919.541,305.341 918.274,305.274 917.141,305.208L916.741,294.208C917.541,294.341 918.641,294.474 920.041,294.608C921.441,294.741 922.941,294.874 924.541,295.008C926.141,295.141 927.791,295.241 929.491,295.308C931.191,295.374 932.774,295.408 934.241,295.408L937.841,295.408L938.441,290.408C938.574,289.541 938.674,288.591 938.741,287.558C938.808,286.524 938.808,285.574 938.741,284.708L951.141,285.008C950.541,286.608 950.074,288.291 949.741,290.058C949.408,291.824 949.108,293.541 948.841,295.208C954.641,295.008 960.141,294.591 965.341,293.958C970.541,293.324 975.741,292.374 980.941,291.108L981.041,302.008C976.441,302.941 971.158,303.674 965.191,304.208C959.224,304.741 953.308,305.174 947.441,305.508C947.308,306.908 947.174,308.308 947.041,309.708C946.908,311.108 946.808,312.541 946.741,314.008C951.408,312.874 956.141,312.308 960.941,312.308L962.541,312.308C962.741,311.374 962.924,310.374 963.091,309.308C963.258,308.241 963.374,307.341 963.441,306.608L975.041,309.311Z" style="fill-rule:nonzero;stroke:black;stroke-width:12px;"/>
        <path d="M1043.14,356.008C1045.21,356.008 1047.07,355.908 1048.74,355.708C1048.41,352.641 1047.42,350.174 1045.79,348.308C1044.16,346.441 1042.04,345.508 1039.44,345.508C1037.71,345.508 1036.31,345.958 1035.24,346.858C1034.17,347.758 1033.64,348.808 1033.64,350.008C1033.64,351.808 1034.52,353.258 1036.29,354.358C1038.06,355.458 1040.34,356.008 1043.14,356.008ZM1070.1,296.034C1068.96,296.77 1067.85,297.489 1066.75,298.191C1065.65,298.894 1064.56,299.613 1063.5,300.348C1062.23,301.218 1060.7,302.372 1058.9,303.811C1057.1,305.249 1055.25,306.755 1053.35,308.327C1051.45,309.898 1049.55,311.471 1047.65,313.043C1045.75,314.615 1044.07,316.004 1042.61,317.208C1044.13,316.741 1045.62,316.441 1047.05,316.308C1048.48,316.174 1049.96,316.108 1051.49,316.108C1055.48,316.108 1059.19,316.708 1062.62,317.908C1066.05,319.108 1069.04,320.758 1071.61,322.858C1074.17,324.958 1076.16,327.458 1077.6,330.358C1079.03,333.258 1079.74,336.441 1079.74,339.908C1079.74,343.641 1079.03,347.141 1077.6,350.408C1076.16,353.674 1074.04,356.508 1071.21,358.908C1068.38,361.308 1064.82,363.208 1060.53,364.608C1056.23,366.008 1051.22,366.708 1045.5,366.708C1042.24,366.708 1039.2,366.34 1036.37,365.604C1033.54,364.868 1031.09,363.815 1029.03,362.444C1026.97,361.073 1025.35,359.434 1024.19,357.528C1023.02,355.622 1022.44,353.498 1022.44,351.156C1022.44,349.217 1022.86,347.361 1023.69,345.588C1024.52,343.816 1025.68,342.244 1027.18,340.873C1028.68,339.501 1030.48,338.414 1032.57,337.612C1034.67,336.809 1036.95,336.408 1039.41,336.408C1042.34,336.408 1044.97,336.824 1047.3,337.658C1049.63,338.491 1051.64,339.624 1053.34,341.058C1055.04,342.491 1056.4,344.191 1057.43,346.158C1058.46,348.124 1059.18,350.241 1059.58,352.508C1064.75,349.708 1067.34,345.408 1067.34,339.608C1067.34,337.474 1066.84,335.549 1065.84,333.831C1064.84,332.113 1063.45,330.627 1061.68,329.372C1059.91,328.117 1057.82,327.159 1055.41,326.498C1053.01,325.838 1050.43,325.508 1047.7,325.508C1044.1,325.508 1040.76,325.974 1037.7,326.908C1034.63,327.841 1031.73,329.141 1029,330.808C1026.26,332.474 1023.65,334.491 1021.15,336.858C1018.65,339.224 1016.13,341.841 1013.6,344.708L1005,335.808C1006.66,334.408 1008.58,332.824 1010.75,331.058C1012.91,329.291 1015.1,327.491 1017.3,325.658C1019.5,323.824 1021.6,322.058 1023.6,320.358C1025.6,318.658 1027.3,317.241 1028.7,316.108C1030.03,314.974 1031.6,313.691 1033.4,312.258C1035.2,310.824 1037.01,309.341 1038.85,307.808C1040.68,306.274 1042.45,304.791 1044.15,303.358C1045.85,301.924 1047.3,300.708 1048.5,299.708C1047.3,299.708 1045.67,299.741 1043.6,299.808C1041.54,299.874 1039.37,299.958 1037.11,300.058C1034.84,300.158 1032.67,300.258 1030.61,300.358C1028.54,300.458 1026.87,300.574 1025.61,300.708C1024.34,300.774 1023.02,300.874 1021.65,301.008C1020.29,301.141 1019.04,301.308 1017.9,301.508L1017.5,289.008C1018.84,289.141 1020.27,289.258 1021.81,289.358C1023.34,289.458 1024.77,289.508 1026.11,289.508C1027.37,289.508 1029.42,289.474 1032.26,289.408C1035.09,289.341 1038.1,289.274 1041.3,289.208C1044.5,289.141 1047.53,289.041 1050.4,288.908C1053.26,288.774 1055.36,288.674 1056.7,288.608C1058.63,288.474 1060.18,288.308 1061.35,288.108C1062.51,287.908 1063.4,287.741 1064,287.608L1070.1,296.034Z" style="fill-rule:nonzero;stroke:black;stroke-width:12px;"/>
        <path d="M1176.64,285.508L1176.64,331.808L1165.24,331.808L1165.24,327.108L1146.64,327.108L1146.64,353.808C1146.64,355.808 1146.96,357.074 1147.59,357.608C1148.22,358.141 1149.66,358.408 1151.92,358.408L1165.57,358.408C1166.63,358.408 1167.49,358.241 1168.15,357.908C1168.82,357.574 1169.33,356.891 1169.7,355.856C1170.06,354.822 1170.34,353.387 1170.54,351.553C1170.74,349.719 1170.94,347.3 1171.14,344.298C1172.41,345.232 1174.09,346.115 1176.19,346.949C1178.29,347.783 1180.11,348.367 1181.64,348.7C1181.31,352.702 1180.82,356.02 1180.19,358.654C1179.56,361.288 1178.67,363.388 1177.54,364.956C1176.41,366.524 1174.94,367.624 1173.14,368.258C1171.34,368.891 1169.07,369.208 1166.34,369.208L1150.64,369.208C1147.64,369.208 1145.14,368.974 1143.14,368.508C1141.14,368.041 1139.54,367.224 1138.34,366.058C1137.14,364.891 1136.29,363.324 1135.79,361.358C1135.29,359.391 1135.04,356.874 1135.04,353.808L1135.04,316.308L1165.24,316.308L1165.24,296.308L1134.84,296.308L1134.84,285.508L1176.64,285.508ZM1096.34,336.008L1126.94,336.008L1126.94,365.008L1106.14,365.008L1106.14,368.708L1096.34,368.708L1096.34,336.008ZM1092.04,296.508L1131.14,296.408L1131.14,305.508L1092.04,305.508L1092.04,296.508ZM1127.24,309.808L1127.24,318.508L1096.54,318.508L1096.54,309.808L1127.24,309.808ZM1097.14,283.708L1127.54,283.708L1127.54,292.308L1097.14,292.308L1097.14,283.708ZM1096.54,331.408L1096.54,323.008L1127.24,323.008L1127.24,331.408L1096.54,331.408ZM1106.14,356.108L1117.04,356.108L1117.04,345.108L1106.14,345.108L1106.14,356.108Z" style="fill-rule:nonzero;stroke:black;stroke-width:12px;"/>
    </g>
    <g id="白" transform="matrix(1,0,0,1,-153.441,-252.046)">
        <path d="M331.941,369.908L331.941,334.508L400.141,334.508L400.141,369.708L388.941,369.708L388.941,367.708L342.541,367.708L342.541,369.908L331.941,369.908ZM393.641,311.208L393.641,331.108L338.441,331.108L338.441,311.208L393.641,311.208ZM325.241,307.108L325.241,286.208L359.741,286.208L359.741,280.708L371.341,280.708L371.341,286.208L406.841,286.208L406.841,307.108L395.441,307.108L395.441,295.708L336.041,295.708L336.041,307.108L325.241,307.108ZM339.941,307.708L339.941,299.908L391.641,299.908L391.641,307.708L339.941,307.708ZM348.741,323.708L382.641,323.708L382.641,318.708L348.741,318.708L348.741,323.708ZM388.941,359.508L388.941,354.608L370.941,354.608L370.941,359.508L388.941,359.508ZM359.941,359.508L359.941,354.608L342.541,354.608L342.541,359.508L359.941,359.508ZM388.941,347.508L388.941,342.908L370.941,342.908L370.941,347.508L388.941,347.508ZM359.941,347.508L359.941,342.908L342.541,342.908L342.541,347.508L359.941,347.508Z" style="fill-rule:nonzero;stroke:white;stroke-width:10px;"/>
        <path d="M431.341,304.008L431.341,350.908L452.141,350.908L452.141,283.408L463.941,283.408L463.941,350.908L485.641,350.908L485.641,303.808L497.441,303.808L497.441,368.608L485.641,368.608L485.641,362.608L431.341,362.608L431.341,368.908L419.741,368.908L419.741,304.008L431.341,304.008Z" style="fill-rule:nonzero;stroke:white;stroke-width:10px;"/>
        <path d="M585.741,283.008C587.141,285.808 588.841,288.708 590.841,291.708C592.841,294.708 594.958,297.641 597.191,300.508C599.424,303.374 601.724,306.108 604.091,308.708C606.458,311.308 608.741,313.608 610.941,315.608C610.208,316.208 609.391,316.908 608.491,317.708C607.591,318.508 606.708,319.358 605.841,320.258C604.974,321.158 604.141,322.074 603.341,323.008C602.541,323.941 601.874,324.808 601.341,325.608C599.074,323.208 596.724,320.491 594.291,317.458C591.858,314.424 589.458,311.258 587.091,307.958C584.724,304.658 582.458,301.274 580.291,297.808C578.124,294.341 576.174,290.974 574.441,287.708L585.741,283.008ZM560.541,286.608C559.008,290.341 557.258,294.041 555.291,297.708C553.324,301.374 551.208,304.891 548.941,308.258C546.674,311.624 544.324,314.774 541.891,317.708C539.458,320.641 537.041,323.241 534.641,325.508C534.041,324.908 533.291,324.208 532.391,323.408C531.491,322.608 530.524,321.808 529.491,321.008C528.458,320.208 527.441,319.458 526.441,318.758C525.441,318.058 524.541,317.474 523.741,317.008C526.208,315.074 528.591,312.824 530.891,310.258C533.191,307.691 535.374,304.924 537.441,301.958C539.508,298.991 541.391,295.891 543.091,292.658C544.791,289.424 546.274,286.141 547.541,282.808L560.541,286.608ZM587.141,331.308C589.208,333.908 591.291,336.658 593.391,339.558C595.491,342.458 597.524,345.358 599.491,348.258C601.458,351.158 603.258,353.974 604.891,356.708C606.524,359.441 607.941,361.974 609.141,364.308L597.241,370.508C596.774,369.374 596.208,368.158 595.541,366.858C594.874,365.558 594.141,364.208 593.341,362.808C587.608,363.208 581.841,363.591 576.041,363.958C570.241,364.324 564.591,364.674 559.091,365.008C553.591,365.341 548.324,365.641 543.291,365.908C538.258,366.174 533.641,366.408 529.441,366.608L527.941,354.608L541.241,354.108C542.774,351.308 544.308,348.274 545.841,345.008C547.374,341.741 548.858,338.424 550.291,335.058C551.724,331.691 553.074,328.341 554.341,325.008C555.608,321.674 556.674,318.508 557.541,315.508L571.241,318.708C568.708,324.574 565.974,330.558 563.041,336.658C560.108,342.758 557.174,348.408 554.241,353.608C559.441,353.341 564.774,353.074 570.241,352.808C575.708,352.541 581.241,352.241 586.841,351.908C585.108,349.241 583.308,346.591 581.441,343.958C579.574,341.324 577.774,338.841 576.041,336.508L587.141,331.308Z" style="fill-rule:nonzero;stroke:white;stroke-width:10px;"/>
        <path d="M622.841,284.408L704.341,284.408L704.341,370.008L693.241,370.008L693.241,366.608L633.541,366.608L633.541,370.008L622.841,370.008L622.841,284.408ZM693.241,356.408L693.241,294.608L633.541,294.608L633.541,356.408L693.241,356.408ZM634.541,345.208C638.541,344.074 642.458,342.641 646.291,340.908C650.124,339.174 653.574,337.241 656.641,335.108L641.641,335.108L641.641,318.808L685.741,318.808L685.741,333.608L690.541,336.708C689.008,337.908 687.391,339.058 685.691,340.158C683.991,341.258 682.341,342.274 680.741,343.208C682.474,344.074 684.308,344.841 686.241,345.508C688.174,346.174 690.108,346.741 692.041,347.208C691.108,348.074 690.058,349.208 688.891,350.608C687.724,352.008 686.874,353.274 686.341,354.408C682.808,353.274 679.391,351.774 676.091,349.908C672.791,348.041 669.741,345.941 666.941,343.608L666.941,354.308L657.041,354.308L657.041,344.408C651.708,347.608 646.274,350.241 640.741,352.308C640.474,351.841 640.074,351.291 639.541,350.658C639.008,350.024 638.458,349.374 637.891,348.708C637.324,348.041 636.741,347.391 636.141,346.758C635.541,346.124 635.008,345.608 634.541,345.208ZM658.141,309.508L658.141,305.908L641.241,305.908L641.241,299.808L658.141,299.808L658.141,295.708L668.441,295.708L668.441,299.808L686.041,299.808L686.041,305.908L668.441,305.908L668.441,309.508L689.941,309.508L689.941,315.908L636.741,315.908L636.741,309.508L658.141,309.508ZM651.141,329.408L675.741,329.408L675.741,324.608L651.141,324.608L651.141,329.408ZM669.041,335.408C669.774,336.141 670.574,336.858 671.441,337.558C672.308,338.258 673.241,338.941 674.241,339.608C676.308,338.274 678.374,336.774 680.441,335.108L669.241,335.108L669.041,335.408Z" style="fill-rule:nonzero;stroke:white;stroke-width:10px;"/>
        <path d="M730.941,370.408C730.408,368.874 729.508,367.108 728.241,365.108C726.974,363.108 725.774,361.508 724.641,360.308C729.574,359.374 733.574,358.274 736.641,357.008C739.708,355.741 742.174,354.258 744.041,352.558C745.908,350.858 747.258,348.958 748.091,346.858C748.924,344.758 749.541,342.408 749.941,339.808L738.241,339.808L738.241,283.708L800.841,283.708L800.841,339.808L785.341,339.808L785.341,355.008C785.341,356.541 785.573,357.491 786.037,357.858C786.501,358.224 787.661,358.408 789.518,358.408L799.365,358.408C800.16,358.408 800.823,358.274 801.354,358.008C801.884,357.741 802.298,357.158 802.597,356.258C802.895,355.358 803.111,354.074 803.243,352.408C803.376,350.741 803.509,348.508 803.641,345.708C804.241,346.174 804.991,346.641 805.891,347.108C806.791,347.574 807.724,348.008 808.691,348.408C809.658,348.808 810.608,349.158 811.541,349.458C812.474,349.758 813.308,350.008 814.041,350.208C813.774,354.008 813.341,357.124 812.741,359.558C812.141,361.991 811.324,363.941 810.291,365.408C809.258,366.874 807.941,367.891 806.341,368.458C804.741,369.024 802.774,369.308 800.441,369.308L787.741,369.308C784.941,369.308 782.624,369.074 780.791,368.608C778.958,368.141 777.524,367.358 776.491,366.258C775.458,365.158 774.741,363.691 774.341,361.858C773.941,360.024 773.741,357.774 773.741,355.108L773.741,339.808L762.141,339.808C761.674,343.608 760.891,347.091 759.791,350.258C758.691,353.424 756.991,356.274 754.691,358.808C752.391,361.341 749.341,363.574 745.541,365.508C741.741,367.441 736.874,369.074 730.941,370.408ZM749.241,329.908L789.241,329.908L789.241,323.908L749.241,323.908L749.241,329.908ZM749.241,314.808L789.241,314.808L789.241,308.708L749.241,308.708L749.241,314.808ZM749.241,299.608L789.241,299.608L789.241,293.608L749.241,293.608L749.241,299.608Z" style="fill-rule:nonzero;stroke:white;stroke-width:10px;"/>
        <path d="M821.341,296.108C823.208,296.041 824.974,295.974 826.641,295.908C828.308,295.841 829.608,295.741 830.541,295.608C832.541,295.408 834.974,295.191 837.841,294.958C840.708,294.724 843.908,294.441 847.441,294.108C850.974,293.774 854.774,293.441 858.841,293.108C862.908,292.774 867.108,292.408 871.441,292.008C876.308,291.608 881.141,291.274 885.941,291.008C890.741,290.741 894.808,290.541 898.141,290.408L898.241,302.608C896.974,302.608 895.558,302.624 893.991,302.658C892.424,302.691 890.808,302.741 889.141,302.808C887.474,302.874 885.858,302.991 884.291,303.158C882.724,303.324 881.308,303.574 880.041,303.908C877.174,304.641 874.524,305.908 872.091,307.708C869.658,309.508 867.541,311.624 865.741,314.058C863.941,316.491 862.541,319.108 861.541,321.908C860.541,324.708 860.041,327.508 860.041,330.308C860.041,334.174 860.891,337.474 862.591,340.208C864.291,342.941 866.541,345.158 869.341,346.858C872.141,348.558 875.391,349.841 879.091,350.708C882.791,351.574 886.641,352.108 890.641,352.308L886.241,365.408C881.241,365.074 876.424,364.158 871.791,362.658C867.158,361.158 863.058,359.058 859.491,356.358C855.924,353.658 853.058,350.358 850.891,346.458C848.724,342.558 847.641,338.041 847.641,332.908C847.641,329.508 848.074,326.308 848.941,323.308C849.808,320.308 850.908,317.558 852.241,315.058C853.574,312.558 855.058,310.358 856.691,308.458C858.324,306.558 859.941,305.008 861.541,303.808C859.541,304.008 856.891,304.291 853.591,304.658C850.291,305.024 846.791,305.424 843.091,305.858C839.391,306.291 835.708,306.791 832.041,307.358C828.374,307.924 825.174,308.508 822.441,309.108L821.341,296.108Z" style="fill-rule:nonzero;stroke:white;stroke-width:10px;"/>
        <path d="M946.341,324.208C946.341,327.208 946.441,329.991 946.641,332.558C946.841,335.124 947.108,337.574 947.441,339.908C949.774,337.574 951.958,334.958 953.991,332.058C956.024,329.158 957.808,325.774 959.341,321.908C956.874,321.974 954.558,322.208 952.391,322.608C950.224,323.008 948.208,323.474 946.341,324.008L946.341,324.208ZM928.341,351.108C931.008,351.108 934.141,350.074 937.741,348.008C937.208,345.008 936.774,341.924 936.441,338.758C936.108,335.591 935.874,332.374 935.741,329.108C933.941,330.308 932.324,331.641 930.891,333.108C929.458,334.574 928.224,336.074 927.191,337.608C926.158,339.141 925.358,340.674 924.791,342.208C924.224,343.741 923.941,345.174 923.941,346.508C923.941,349.574 925.408,351.108 928.341,351.108ZM975.041,309.311C974.774,309.844 974.508,310.561 974.241,311.462C973.974,312.363 973.674,313.281 973.341,314.214C978.874,316.016 983.308,318.936 986.641,322.973C989.974,327.01 991.641,331.831 991.641,337.436C991.641,340.771 991.108,344.041 990.041,347.244C988.974,350.447 987.208,353.383 984.741,356.051C982.274,358.719 979.058,361.036 975.091,363.003C971.124,364.97 966.241,366.386 960.441,367.253L954.141,357.353C958.674,356.82 962.574,355.903 965.841,354.603C969.108,353.303 971.774,351.72 973.841,349.853C975.908,347.986 977.424,345.936 978.391,343.703C979.358,341.47 979.841,339.186 979.841,336.853C979.841,333.986 979.008,331.37 977.341,329.003C975.674,326.636 973.241,324.853 970.041,323.653C967.441,330.12 964.374,335.753 960.841,340.553C957.308,345.353 953.741,349.253 950.141,352.253C950.474,353.52 950.824,354.736 951.191,355.902C951.558,357.067 951.941,358.212 952.341,359.336L941.441,362.608C941.241,362.008 941.024,361.391 940.791,360.758C940.558,360.124 940.341,359.441 940.141,358.708C937.808,359.841 935.424,360.774 932.991,361.508C930.558,362.241 928.074,362.608 925.541,362.608C923.808,362.608 922.158,362.341 920.591,361.808C919.024,361.274 917.658,360.441 916.491,359.308C915.324,358.174 914.408,356.724 913.741,354.958C913.074,353.191 912.741,351.108 912.741,348.708C912.741,345.708 913.324,342.691 914.491,339.658C915.658,336.624 917.291,333.724 919.391,330.958C921.491,328.191 923.958,325.658 926.791,323.358C929.624,321.058 932.674,319.141 935.941,317.608C936.074,315.608 936.224,313.624 936.391,311.658C936.558,309.691 936.741,307.741 936.941,305.808L933.841,305.808C932.574,305.808 931.208,305.791 929.741,305.758C928.274,305.724 926.791,305.674 925.291,305.608C923.791,305.541 922.341,305.474 920.941,305.408C919.541,305.341 918.274,305.274 917.141,305.208L916.741,294.208C917.541,294.341 918.641,294.474 920.041,294.608C921.441,294.741 922.941,294.874 924.541,295.008C926.141,295.141 927.791,295.241 929.491,295.308C931.191,295.374 932.774,295.408 934.241,295.408L937.841,295.408L938.441,290.408C938.574,289.541 938.674,288.591 938.741,287.558C938.808,286.524 938.808,285.574 938.741,284.708L951.141,285.008C950.541,286.608 950.074,288.291 949.741,290.058C949.408,291.824 949.108,293.541 948.841,295.208C954.641,295.008 960.141,294.591 965.341,293.958C970.541,293.324 975.741,292.374 980.941,291.108L981.041,302.008C976.441,302.941 971.158,303.674 965.191,304.208C959.224,304.741 953.308,305.174 947.441,305.508C947.308,306.908 947.174,308.308 947.041,309.708C946.908,311.108 946.808,312.541 946.741,314.008C951.408,312.874 956.141,312.308 960.941,312.308L962.541,312.308C962.741,311.374 962.924,310.374 963.091,309.308C963.258,308.241 963.374,307.341 963.441,306.608L975.041,309.311Z" style="fill-rule:nonzero;stroke:white;stroke-width:10px;"/>
        <path d="M1043.14,356.008C1045.21,356.008 1047.07,355.908 1048.74,355.708C1048.41,352.641 1047.42,350.174 1045.79,348.308C1044.16,346.441 1042.04,345.508 1039.44,345.508C1037.71,345.508 1036.31,345.958 1035.24,346.858C1034.17,347.758 1033.64,348.808 1033.64,350.008C1033.64,351.808 1034.52,353.258 1036.29,354.358C1038.06,355.458 1040.34,356.008 1043.14,356.008ZM1070.1,296.034C1068.96,296.77 1067.85,297.489 1066.75,298.191C1065.65,298.894 1064.56,299.613 1063.5,300.348C1062.23,301.218 1060.7,302.372 1058.9,303.811C1057.1,305.249 1055.25,306.755 1053.35,308.327C1051.45,309.898 1049.55,311.471 1047.65,313.043C1045.75,314.615 1044.07,316.004 1042.61,317.208C1044.13,316.741 1045.62,316.441 1047.05,316.308C1048.48,316.174 1049.96,316.108 1051.49,316.108C1055.48,316.108 1059.19,316.708 1062.62,317.908C1066.05,319.108 1069.04,320.758 1071.61,322.858C1074.17,324.958 1076.16,327.458 1077.6,330.358C1079.03,333.258 1079.74,336.441 1079.74,339.908C1079.74,343.641 1079.03,347.141 1077.6,350.408C1076.16,353.674 1074.04,356.508 1071.21,358.908C1068.38,361.308 1064.82,363.208 1060.53,364.608C1056.23,366.008 1051.22,366.708 1045.5,366.708C1042.24,366.708 1039.2,366.34 1036.37,365.604C1033.54,364.868 1031.09,363.815 1029.03,362.444C1026.97,361.073 1025.35,359.434 1024.19,357.528C1023.02,355.622 1022.44,353.498 1022.44,351.156C1022.44,349.217 1022.86,347.361 1023.69,345.588C1024.52,343.816 1025.68,342.244 1027.18,340.873C1028.68,339.501 1030.48,338.414 1032.57,337.612C1034.67,336.809 1036.95,336.408 1039.41,336.408C1042.34,336.408 1044.97,336.824 1047.3,337.658C1049.63,338.491 1051.64,339.624 1053.34,341.058C1055.04,342.491 1056.4,344.191 1057.43,346.158C1058.46,348.124 1059.18,350.241 1059.58,352.508C1064.75,349.708 1067.34,345.408 1067.34,339.608C1067.34,337.474 1066.84,335.549 1065.84,333.831C1064.84,332.113 1063.45,330.627 1061.68,329.372C1059.91,328.117 1057.82,327.159 1055.41,326.498C1053.01,325.838 1050.43,325.508 1047.7,325.508C1044.1,325.508 1040.76,325.974 1037.7,326.908C1034.63,327.841 1031.73,329.141 1029,330.808C1026.26,332.474 1023.65,334.491 1021.15,336.858C1018.65,339.224 1016.13,341.841 1013.6,344.708L1005,335.808C1006.66,334.408 1008.58,332.824 1010.75,331.058C1012.91,329.291 1015.1,327.491 1017.3,325.658C1019.5,323.824 1021.6,322.058 1023.6,320.358C1025.6,318.658 1027.3,317.241 1028.7,316.108C1030.03,314.974 1031.6,313.691 1033.4,312.258C1035.2,310.824 1037.01,309.341 1038.85,307.808C1040.68,306.274 1042.45,304.791 1044.15,303.358C1045.85,301.924 1047.3,300.708 1048.5,299.708C1047.3,299.708 1045.67,299.741 1043.6,299.808C1041.54,299.874 1039.37,299.958 1037.11,300.058C1034.84,300.158 1032.67,300.258 1030.61,300.358C1028.54,300.458 1026.87,300.574 1025.61,300.708C1024.34,300.774 1023.02,300.874 1021.65,301.008C1020.29,301.141 1019.04,301.308 1017.9,301.508L1017.5,289.008C1018.84,289.141 1020.27,289.258 1021.81,289.358C1023.34,289.458 1024.77,289.508 1026.11,289.508C1027.37,289.508 1029.42,289.474 1032.26,289.408C1035.09,289.341 1038.1,289.274 1041.3,289.208C1044.5,289.141 1047.53,289.041 1050.4,288.908C1053.26,288.774 1055.36,288.674 1056.7,288.608C1058.63,288.474 1060.18,288.308 1061.35,288.108C1062.51,287.908 1063.4,287.741 1064,287.608L1070.1,296.034Z" style="fill-rule:nonzero;stroke:white;stroke-width:10px;"/>
        <path d="M1176.64,285.508L1176.64,331.808L1165.24,331.808L1165.24,327.108L1146.64,327.108L1146.64,353.808C1146.64,355.808 1146.96,357.074 1147.59,357.608C1148.22,358.141 1149.66,358.408 1151.92,358.408L1165.57,358.408C1166.63,358.408 1167.49,358.241 1168.15,357.908C1168.82,357.574 1169.33,356.891 1169.7,355.856C1170.06,354.822 1170.34,353.387 1170.54,351.553C1170.74,349.719 1170.94,347.3 1171.14,344.298C1172.41,345.232 1174.09,346.115 1176.19,346.949C1178.29,347.783 1180.11,348.367 1181.64,348.7C1181.31,352.702 1180.82,356.02 1180.19,358.654C1179.56,361.288 1178.67,363.388 1177.54,364.956C1176.41,366.524 1174.94,367.624 1173.14,368.258C1171.34,368.891 1169.07,369.208 1166.34,369.208L1150.64,369.208C1147.64,369.208 1145.14,368.974 1143.14,368.508C1141.14,368.041 1139.54,367.224 1138.34,366.058C1137.14,364.891 1136.29,363.324 1135.79,361.358C1135.29,359.391 1135.04,356.874 1135.04,353.808L1135.04,316.308L1165.24,316.308L1165.24,296.308L1134.84,296.308L1134.84,285.508L1176.64,285.508ZM1096.34,336.008L1126.94,336.008L1126.94,365.008L1106.14,365.008L1106.14,368.708L1096.34,368.708L1096.34,336.008ZM1092.04,296.508L1131.14,296.408L1131.14,305.508L1092.04,305.508L1092.04,296.508ZM1127.24,309.808L1127.24,318.508L1096.54,318.508L1096.54,309.808L1127.24,309.808ZM1097.14,283.708L1127.54,283.708L1127.54,292.308L1097.14,292.308L1097.14,283.708ZM1096.54,331.408L1096.54,323.008L1127.24,323.008L1127.24,331.408L1096.54,331.408ZM1106.14,356.108L1117.04,356.108L1117.04,345.108L1106.14,345.108L1106.14,356.108Z" style="fill-rule:nonzero;stroke:white;stroke-width:10px;"/>
    </g>
    <g id="黒1" serif:id="黒" transform="matrix(1,0,0,1,-153.441,-252.046)">
        <path d="M331.941,369.908L331.941,334.508L400.141,334.508L400.141,369.708L388.941,369.708L388.941,367.708L342.541,367.708L342.541,369.908L331.941,369.908ZM393.641,311.208L393.641,331.108L338.441,331.108L338.441,311.208L393.641,311.208ZM325.241,307.108L325.241,286.208L359.741,286.208L359.741,280.708L371.341,280.708L371.341,286.208L406.841,286.208L406.841,307.108L395.441,307.108L395.441,295.708L336.041,295.708L336.041,307.108L325.241,307.108ZM339.941,307.708L339.941,299.908L391.641,299.908L391.641,307.708L339.941,307.708ZM348.741,323.708L382.641,323.708L382.641,318.708L348.741,318.708L348.741,323.708ZM388.941,359.508L388.941,354.608L370.941,354.608L370.941,359.508L388.941,359.508ZM359.941,359.508L359.941,354.608L342.541,354.608L342.541,359.508L359.941,359.508ZM388.941,347.508L388.941,342.908L370.941,342.908L370.941,347.508L388.941,347.508ZM359.941,347.508L359.941,342.908L342.541,342.908L342.541,347.508L359.941,347.508Z" style="fill-rule:nonzero;stroke:rgb(43,76,41);stroke-width:3px;"/>
        <path d="M431.341,304.008L431.341,350.908L452.141,350.908L452.141,283.408L463.941,283.408L463.941,350.908L485.641,350.908L485.641,303.808L497.441,303.808L497.441,368.608L485.641,368.608L485.641,362.608L431.341,362.608L431.341,368.908L419.741,368.908L419.741,304.008L431.341,304.008Z" style="fill-rule:nonzero;stroke:rgb(43,76,41);stroke-width:3px;"/>
        <path d="M585.741,283.008C587.141,285.808 588.841,288.708 590.841,291.708C592.841,294.708 594.958,297.641 597.191,300.508C599.424,303.374 601.724,306.108 604.091,308.708C606.458,311.308 608.741,313.608 610.941,315.608C610.208,316.208 609.391,316.908 608.491,317.708C607.591,318.508 606.708,319.358 605.841,320.258C604.974,321.158 604.141,322.074 603.341,323.008C602.541,323.941 601.874,324.808 601.341,325.608C599.074,323.208 596.724,320.491 594.291,317.458C591.858,314.424 589.458,311.258 587.091,307.958C584.724,304.658 582.458,301.274 580.291,297.808C578.124,294.341 576.174,290.974 574.441,287.708L585.741,283.008ZM560.541,286.608C559.008,290.341 557.258,294.041 555.291,297.708C553.324,301.374 551.208,304.891 548.941,308.258C546.674,311.624 544.324,314.774 541.891,317.708C539.458,320.641 537.041,323.241 534.641,325.508C534.041,324.908 533.291,324.208 532.391,323.408C531.491,322.608 530.524,321.808 529.491,321.008C528.458,320.208 527.441,319.458 526.441,318.758C525.441,318.058 524.541,317.474 523.741,317.008C526.208,315.074 528.591,312.824 530.891,310.258C533.191,307.691 535.374,304.924 537.441,301.958C539.508,298.991 541.391,295.891 543.091,292.658C544.791,289.424 546.274,286.141 547.541,282.808L560.541,286.608ZM587.141,331.308C589.208,333.908 591.291,336.658 593.391,339.558C595.491,342.458 597.524,345.358 599.491,348.258C601.458,351.158 603.258,353.974 604.891,356.708C606.524,359.441 607.941,361.974 609.141,364.308L597.241,370.508C596.774,369.374 596.208,368.158 595.541,366.858C594.874,365.558 594.141,364.208 593.341,362.808C587.608,363.208 581.841,363.591 576.041,363.958C570.241,364.324 564.591,364.674 559.091,365.008C553.591,365.341 548.324,365.641 543.291,365.908C538.258,366.174 533.641,366.408 529.441,366.608L527.941,354.608L541.241,354.108C542.774,351.308 544.308,348.274 545.841,345.008C547.374,341.741 548.858,338.424 550.291,335.058C551.724,331.691 553.074,328.341 554.341,325.008C555.608,321.674 556.674,318.508 557.541,315.508L571.241,318.708C568.708,324.574 565.974,330.558 563.041,336.658C560.108,342.758 557.174,348.408 554.241,353.608C559.441,353.341 564.774,353.074 570.241,352.808C575.708,352.541 581.241,352.241 586.841,351.908C585.108,349.241 583.308,346.591 581.441,343.958C579.574,341.324 577.774,338.841 576.041,336.508L587.141,331.308Z" style="fill-rule:nonzero;stroke:rgb(43,76,41);stroke-width:3px;"/>
        <path d="M622.841,284.408L704.341,284.408L704.341,370.008L693.241,370.008L693.241,366.608L633.541,366.608L633.541,370.008L622.841,370.008L622.841,284.408ZM693.241,356.408L693.241,294.608L633.541,294.608L633.541,356.408L693.241,356.408ZM634.541,345.208C638.541,344.074 642.458,342.641 646.291,340.908C650.124,339.174 653.574,337.241 656.641,335.108L641.641,335.108L641.641,318.808L685.741,318.808L685.741,333.608L690.541,336.708C689.008,337.908 687.391,339.058 685.691,340.158C683.991,341.258 682.341,342.274 680.741,343.208C682.474,344.074 684.308,344.841 686.241,345.508C688.174,346.174 690.108,346.741 692.041,347.208C691.108,348.074 690.058,349.208 688.891,350.608C687.724,352.008 686.874,353.274 686.341,354.408C682.808,353.274 679.391,351.774 676.091,349.908C672.791,348.041 669.741,345.941 666.941,343.608L666.941,354.308L657.041,354.308L657.041,344.408C651.708,347.608 646.274,350.241 640.741,352.308C640.474,351.841 640.074,351.291 639.541,350.658C639.008,350.024 638.458,349.374 637.891,348.708C637.324,348.041 636.741,347.391 636.141,346.758C635.541,346.124 635.008,345.608 634.541,345.208ZM658.141,309.508L658.141,305.908L641.241,305.908L641.241,299.808L658.141,299.808L658.141,295.708L668.441,295.708L668.441,299.808L686.041,299.808L686.041,305.908L668.441,305.908L668.441,309.508L689.941,309.508L689.941,315.908L636.741,315.908L636.741,309.508L658.141,309.508ZM651.141,329.408L675.741,329.408L675.741,324.608L651.141,324.608L651.141,329.408ZM669.041,335.408C669.774,336.141 670.574,336.858 671.441,337.558C672.308,338.258 673.241,338.941 674.241,339.608C676.308,338.274 678.374,336.774 680.441,335.108L669.241,335.108L669.041,335.408Z" style="fill-rule:nonzero;stroke:rgb(43,76,41);stroke-width:3px;"/>
        <path d="M730.941,370.408C730.408,368.874 729.508,367.108 728.241,365.108C726.974,363.108 725.774,361.508 724.641,360.308C729.574,359.374 733.574,358.274 736.641,357.008C739.708,355.741 742.174,354.258 744.041,352.558C745.908,350.858 747.258,348.958 748.091,346.858C748.924,344.758 749.541,342.408 749.941,339.808L738.241,339.808L738.241,283.708L800.841,283.708L800.841,339.808L785.341,339.808L785.341,355.008C785.341,356.541 785.573,357.491 786.037,357.858C786.501,358.224 787.661,358.408 789.518,358.408L799.365,358.408C800.16,358.408 800.823,358.274 801.354,358.008C801.884,357.741 802.298,357.158 802.597,356.258C802.895,355.358 803.111,354.074 803.243,352.408C803.376,350.741 803.509,348.508 803.641,345.708C804.241,346.174 804.991,346.641 805.891,347.108C806.791,347.574 807.724,348.008 808.691,348.408C809.658,348.808 810.608,349.158 811.541,349.458C812.474,349.758 813.308,350.008 814.041,350.208C813.774,354.008 813.341,357.124 812.741,359.558C812.141,361.991 811.324,363.941 810.291,365.408C809.258,366.874 807.941,367.891 806.341,368.458C804.741,369.024 802.774,369.308 800.441,369.308L787.741,369.308C784.941,369.308 782.624,369.074 780.791,368.608C778.958,368.141 777.524,367.358 776.491,366.258C775.458,365.158 774.741,363.691 774.341,361.858C773.941,360.024 773.741,357.774 773.741,355.108L773.741,339.808L762.141,339.808C761.674,343.608 760.891,347.091 759.791,350.258C758.691,353.424 756.991,356.274 754.691,358.808C752.391,361.341 749.341,363.574 745.541,365.508C741.741,367.441 736.874,369.074 730.941,370.408ZM749.241,329.908L789.241,329.908L789.241,323.908L749.241,323.908L749.241,329.908ZM749.241,314.808L789.241,314.808L789.241,308.708L749.241,308.708L749.241,314.808ZM749.241,299.608L789.241,299.608L789.241,293.608L749.241,293.608L749.241,299.608Z" style="fill-rule:nonzero;stroke:rgb(43,76,41);stroke-width:3px;"/>
        <path d="M821.341,296.108C823.208,296.041 824.974,295.974 826.641,295.908C828.308,295.841 829.608,295.741 830.541,295.608C832.541,295.408 834.974,295.191 837.841,294.958C840.708,294.724 843.908,294.441 847.441,294.108C850.974,293.774 854.774,293.441 858.841,293.108C862.908,292.774 867.108,292.408 871.441,292.008C876.308,291.608 881.141,291.274 885.941,291.008C890.741,290.741 894.808,290.541 898.141,290.408L898.241,302.608C896.974,302.608 895.558,302.624 893.991,302.658C892.424,302.691 890.808,302.741 889.141,302.808C887.474,302.874 885.858,302.991 884.291,303.158C882.724,303.324 881.308,303.574 880.041,303.908C877.174,304.641 874.524,305.908 872.091,307.708C869.658,309.508 867.541,311.624 865.741,314.058C863.941,316.491 862.541,319.108 861.541,321.908C860.541,324.708 860.041,327.508 860.041,330.308C860.041,334.174 860.891,337.474 862.591,340.208C864.291,342.941 866.541,345.158 869.341,346.858C872.141,348.558 875.391,349.841 879.091,350.708C882.791,351.574 886.641,352.108 890.641,352.308L886.241,365.408C881.241,365.074 876.424,364.158 871.791,362.658C867.158,361.158 863.058,359.058 859.491,356.358C855.924,353.658 853.058,350.358 850.891,346.458C848.724,342.558 847.641,338.041 847.641,332.908C847.641,329.508 848.074,326.308 848.941,323.308C849.808,320.308 850.908,317.558 852.241,315.058C853.574,312.558 855.058,310.358 856.691,308.458C858.324,306.558 859.941,305.008 861.541,303.808C859.541,304.008 856.891,304.291 853.591,304.658C850.291,305.024 846.791,305.424 843.091,305.858C839.391,306.291 835.708,306.791 832.041,307.358C828.374,307.924 825.174,308.508 822.441,309.108L821.341,296.108Z" style="fill-rule:nonzero;stroke:rgb(43,76,41);stroke-width:3px;"/>
        <path d="M946.341,324.208C946.341,327.208 946.441,329.991 946.641,332.558C946.841,335.124 947.108,337.574 947.441,339.908C949.774,337.574 951.958,334.958 953.991,332.058C956.024,329.158 957.808,325.774 959.341,321.908C956.874,321.974 954.558,322.208 952.391,322.608C950.224,323.008 948.208,323.474 946.341,324.008L946.341,324.208ZM928.341,351.108C931.008,351.108 934.141,350.074 937.741,348.008C937.208,345.008 936.774,341.924 936.441,338.758C936.108,335.591 935.874,332.374 935.741,329.108C933.941,330.308 932.324,331.641 930.891,333.108C929.458,334.574 928.224,336.074 927.191,337.608C926.158,339.141 925.358,340.674 924.791,342.208C924.224,343.741 923.941,345.174 923.941,346.508C923.941,349.574 925.408,351.108 928.341,351.108ZM975.041,309.311C974.774,309.844 974.508,310.561 974.241,311.462C973.974,312.363 973.674,313.281 973.341,314.214C978.874,316.016 983.308,318.936 986.641,322.973C989.974,327.01 991.641,331.831 991.641,337.436C991.641,340.771 991.108,344.041 990.041,347.244C988.974,350.447 987.208,353.383 984.741,356.051C982.274,358.719 979.058,361.036 975.091,363.003C971.124,364.97 966.241,366.386 960.441,367.253L954.141,357.353C958.674,356.82 962.574,355.903 965.841,354.603C969.108,353.303 971.774,351.72 973.841,349.853C975.908,347.986 977.424,345.936 978.391,343.703C979.358,341.47 979.841,339.186 979.841,336.853C979.841,333.986 979.008,331.37 977.341,329.003C975.674,326.636 973.241,324.853 970.041,323.653C967.441,330.12 964.374,335.753 960.841,340.553C957.308,345.353 953.741,349.253 950.141,352.253C950.474,353.52 950.824,354.736 951.191,355.902C951.558,357.067 951.941,358.212 952.341,359.336L941.441,362.608C941.241,362.008 941.024,361.391 940.791,360.758C940.558,360.124 940.341,359.441 940.141,358.708C937.808,359.841 935.424,360.774 932.991,361.508C930.558,362.241 928.074,362.608 925.541,362.608C923.808,362.608 922.158,362.341 920.591,361.808C919.024,361.274 917.658,360.441 916.491,359.308C915.324,358.174 914.408,356.724 913.741,354.958C913.074,353.191 912.741,351.108 912.741,348.708C912.741,345.708 913.324,342.691 914.491,339.658C915.658,336.624 917.291,333.724 919.391,330.958C921.491,328.191 923.958,325.658 926.791,323.358C929.624,321.058 932.674,319.141 935.941,317.608C936.074,315.608 936.224,313.624 936.391,311.658C936.558,309.691 936.741,307.741 936.941,305.808L933.841,305.808C932.574,305.808 931.208,305.791 929.741,305.758C928.274,305.724 926.791,305.674 925.291,305.608C923.791,305.541 922.341,305.474 920.941,305.408C919.541,305.341 918.274,305.274 917.141,305.208L916.741,294.208C917.541,294.341 918.641,294.474 920.041,294.608C921.441,294.741 922.941,294.874 924.541,295.008C926.141,295.141 927.791,295.241 929.491,295.308C931.191,295.374 932.774,295.408 934.241,295.408L937.841,295.408L938.441,290.408C938.574,289.541 938.674,288.591 938.741,287.558C938.808,286.524 938.808,285.574 938.741,284.708L951.141,285.008C950.541,286.608 950.074,288.291 949.741,290.058C949.408,291.824 949.108,293.541 948.841,295.208C954.641,295.008 960.141,294.591 965.341,293.958C970.541,293.324 975.741,292.374 980.941,291.108L981.041,302.008C976.441,302.941 971.158,303.674 965.191,304.208C959.224,304.741 953.308,305.174 947.441,305.508C947.308,306.908 947.174,308.308 947.041,309.708C946.908,311.108 946.808,312.541 946.741,314.008C951.408,312.874 956.141,312.308 960.941,312.308L962.541,312.308C962.741,311.374 962.924,310.374 963.091,309.308C963.258,308.241 963.374,307.341 963.441,306.608L975.041,309.311Z" style="fill-rule:nonzero;stroke:rgb(43,76,41);stroke-width:3px;"/>
        <path d="M1043.14,356.008C1045.21,356.008 1047.07,355.908 1048.74,355.708C1048.41,352.641 1047.42,350.174 1045.79,348.308C1044.16,346.441 1042.04,345.508 1039.44,345.508C1037.71,345.508 1036.31,345.958 1035.24,346.858C1034.17,347.758 1033.64,348.808 1033.64,350.008C1033.64,351.808 1034.52,353.258 1036.29,354.358C1038.06,355.458 1040.34,356.008 1043.14,356.008ZM1070.1,296.034C1068.96,296.77 1067.85,297.489 1066.75,298.191C1065.65,298.894 1064.56,299.613 1063.5,300.348C1062.23,301.218 1060.7,302.372 1058.9,303.811C1057.1,305.249 1055.25,306.755 1053.35,308.327C1051.45,309.898 1049.55,311.471 1047.65,313.043C1045.75,314.615 1044.07,316.004 1042.61,317.208C1044.13,316.741 1045.62,316.441 1047.05,316.308C1048.48,316.174 1049.96,316.108 1051.49,316.108C1055.48,316.108 1059.19,316.708 1062.62,317.908C1066.05,319.108 1069.04,320.758 1071.61,322.858C1074.17,324.958 1076.16,327.458 1077.6,330.358C1079.03,333.258 1079.74,336.441 1079.74,339.908C1079.74,343.641 1079.03,347.141 1077.6,350.408C1076.16,353.674 1074.04,356.508 1071.21,358.908C1068.38,361.308 1064.82,363.208 1060.53,364.608C1056.23,366.008 1051.22,366.708 1045.5,366.708C1042.24,366.708 1039.2,366.34 1036.37,365.604C1033.54,364.868 1031.09,363.815 1029.03,362.444C1026.97,361.073 1025.35,359.434 1024.19,357.528C1023.02,355.622 1022.44,353.498 1022.44,351.156C1022.44,349.217 1022.86,347.361 1023.69,345.588C1024.52,343.816 1025.68,342.244 1027.18,340.873C1028.68,339.501 1030.48,338.414 1032.57,337.612C1034.67,336.809 1036.95,336.408 1039.41,336.408C1042.34,336.408 1044.97,336.824 1047.3,337.658C1049.63,338.491 1051.64,339.624 1053.34,341.058C1055.04,342.491 1056.4,344.191 1057.43,346.158C1058.46,348.124 1059.18,350.241 1059.58,352.508C1064.75,349.708 1067.34,345.408 1067.34,339.608C1067.34,337.474 1066.84,335.549 1065.84,333.831C1064.84,332.113 1063.45,330.627 1061.68,329.372C1059.91,328.117 1057.82,327.159 1055.41,326.498C1053.01,325.838 1050.43,325.508 1047.7,325.508C1044.1,325.508 1040.76,325.974 1037.7,326.908C1034.63,327.841 1031.73,329.141 1029,330.808C1026.26,332.474 1023.65,334.491 1021.15,336.858C1018.65,339.224 1016.13,341.841 1013.6,344.708L1005,335.808C1006.66,334.408 1008.58,332.824 1010.75,331.058C1012.91,329.291 1015.1,327.491 1017.3,325.658C1019.5,323.824 1021.6,322.058 1023.6,320.358C1025.6,318.658 1027.3,317.241 1028.7,316.108C1030.03,314.974 1031.6,313.691 1033.4,312.258C1035.2,310.824 1037.01,309.341 1038.85,307.808C1040.68,306.274 1042.45,304.791 1044.15,303.358C1045.85,301.924 1047.3,300.708 1048.5,299.708C1047.3,299.708 1045.67,299.741 1043.6,299.808C1041.54,299.874 1039.37,299.958 1037.11,300.058C1034.84,300.158 1032.67,300.258 1030.61,300.358C1028.54,300.458 1026.87,300.574 1025.61,300.708C1024.34,300.774 1023.02,300.874 1021.65,301.008C1020.29,301.141 1019.04,301.308 1017.9,301.508L1017.5,289.008C1018.84,289.141 1020.27,289.258 1021.81,289.358C1023.34,289.458 1024.77,289.508 1026.11,289.508C1027.37,289.508 1029.42,289.474 1032.26,289.408C1035.09,289.341 1038.1,289.274 1041.3,289.208C1044.5,289.141 1047.53,289.041 1050.4,288.908C1053.26,288.774 1055.36,288.674 1056.7,288.608C1058.63,288.474 1060.18,288.308 1061.35,288.108C1062.51,287.908 1063.4,287.741 1064,287.608L1070.1,296.034Z" style="fill-rule:nonzero;stroke:rgb(43,76,41);stroke-width:3px;"/>
        <path d="M1176.64,285.508L1176.64,331.808L1165.24,331.808L1165.24,327.108L1146.64,327.108L1146.64,353.808C1146.64,355.808 1146.96,357.074 1147.59,357.608C1148.22,358.141 1149.66,358.408 1151.92,358.408L1165.57,358.408C1166.63,358.408 1167.49,358.241 1168.15,357.908C1168.82,357.574 1169.33,356.891 1169.7,355.856C1170.06,354.822 1170.34,353.387 1170.54,351.553C1170.74,349.719 1170.94,347.3 1171.14,344.298C1172.41,345.232 1174.09,346.115 1176.19,346.949C1178.29,347.783 1180.11,348.367 1181.64,348.7C1181.31,352.702 1180.82,356.02 1180.19,358.654C1179.56,361.288 1178.67,363.388 1177.54,364.956C1176.41,366.524 1174.94,367.624 1173.14,368.258C1171.34,368.891 1169.07,369.208 1166.34,369.208L1150.64,369.208C1147.64,369.208 1145.14,368.974 1143.14,368.508C1141.14,368.041 1139.54,367.224 1138.34,366.058C1137.14,364.891 1136.29,363.324 1135.79,361.358C1135.29,359.391 1135.04,356.874 1135.04,353.808L1135.04,316.308L1165.24,316.308L1165.24,296.308L1134.84,296.308L1134.84,285.508L1176.64,285.508ZM1096.34,336.008L1126.94,336.008L1126.94,365.008L1106.14,365.008L1106.14,368.708L1096.34,368.708L1096.34,336.008ZM1092.04,296.508L1131.14,296.408L1131.14,305.508L1092.04,305.508L1092.04,296.508ZM1127.24,309.808L1127.24,318.508L1096.54,318.508L1096.54,309.808L1127.24,309.808ZM1097.14,283.708L1127.54,283.708L1127.54,292.308L1097.14,292.308L1097.14,283.708ZM1096.54,331.408L1096.54,323.008L1127.24,323.008L1127.24,331.408L1096.54,331.408ZM1106.14,356.108L1117.04,356.108L1117.04,345.108L1106.14,345.108L1106.14,356.108Z" style="fill-rule:nonzero;stroke:rgb(43,76,41);stroke-width:3px;"/>
    </g>
    <g transform="matrix(1,0,0,1,-153.441,-252.046)">
        <path d="M331.941,369.908L331.941,334.508L400.141,334.508L400.141,369.708L388.941,369.708L388.941,367.708L342.541,367.708L342.541,369.908L331.941,369.908ZM393.641,311.208L393.641,331.108L338.441,331.108L338.441,311.208L393.641,311.208ZM325.241,307.108L325.241,286.208L359.741,286.208L359.741,280.708L371.341,280.708L371.341,286.208L406.841,286.208L406.841,307.108L395.441,307.108L395.441,295.708L336.041,295.708L336.041,307.108L325.241,307.108ZM339.941,307.708L339.941,299.908L391.641,299.908L391.641,307.708L339.941,307.708ZM348.741,323.708L382.641,323.708L382.641,318.708L348.741,318.708L348.741,323.708ZM388.941,359.508L388.941,354.608L370.941,354.608L370.941,359.508L388.941,359.508ZM359.941,359.508L359.941,354.608L342.541,354.608L342.541,359.508L359.941,359.508ZM388.941,347.508L388.941,342.908L370.941,342.908L370.941,347.508L388.941,347.508ZM359.941,347.508L359.941,342.908L342.541,342.908L342.541,347.508L359.941,347.508Z" style="fill:rgb(31,188,29);fill-rule:nonzero;stroke:white;stroke-width:1px;"/>
        <path d="M431.341,304.008L431.341,350.908L452.141,350.908L452.141,283.408L463.941,283.408L463.941,350.908L485.641,350.908L485.641,303.808L497.441,303.808L497.441,368.608L485.641,368.608L485.641,362.608L431.341,362.608L431.341,368.908L419.741,368.908L419.741,304.008L431.341,304.008Z" style="fill:rgb(31,188,29);fill-rule:nonzero;stroke:white;stroke-width:1px;"/>
        <path d="M585.741,283.008C587.141,285.808 588.841,288.708 590.841,291.708C592.841,294.708 594.958,297.641 597.191,300.508C599.424,303.374 601.724,306.108 604.091,308.708C606.458,311.308 608.741,313.608 610.941,315.608C610.208,316.208 609.391,316.908 608.491,317.708C607.591,318.508 606.708,319.358 605.841,320.258C604.974,321.158 604.141,322.074 603.341,323.008C602.541,323.941 601.874,324.808 601.341,325.608C599.074,323.208 596.724,320.491 594.291,317.458C591.858,314.424 589.458,311.258 587.091,307.958C584.724,304.658 582.458,301.274 580.291,297.808C578.124,294.341 576.174,290.974 574.441,287.708L585.741,283.008ZM560.541,286.608C559.008,290.341 557.258,294.041 555.291,297.708C553.324,301.374 551.208,304.891 548.941,308.258C546.674,311.624 544.324,314.774 541.891,317.708C539.458,320.641 537.041,323.241 534.641,325.508C534.041,324.908 533.291,324.208 532.391,323.408C531.491,322.608 530.524,321.808 529.491,321.008C528.458,320.208 527.441,319.458 526.441,318.758C525.441,318.058 524.541,317.474 523.741,317.008C526.208,315.074 528.591,312.824 530.891,310.258C533.191,307.691 535.374,304.924 537.441,301.958C539.508,298.991 541.391,295.891 543.091,292.658C544.791,289.424 546.274,286.141 547.541,282.808L560.541,286.608ZM587.141,331.308C589.208,333.908 591.291,336.658 593.391,339.558C595.491,342.458 597.524,345.358 599.491,348.258C601.458,351.158 603.258,353.974 604.891,356.708C606.524,359.441 607.941,361.974 609.141,364.308L597.241,370.508C596.774,369.374 596.208,368.158 595.541,366.858C594.874,365.558 594.141,364.208 593.341,362.808C587.608,363.208 581.841,363.591 576.041,363.958C570.241,364.324 564.591,364.674 559.091,365.008C553.591,365.341 548.324,365.641 543.291,365.908C538.258,366.174 533.641,366.408 529.441,366.608L527.941,354.608L541.241,354.108C542.774,351.308 544.308,348.274 545.841,345.008C547.374,341.741 548.858,338.424 550.291,335.058C551.724,331.691 553.074,328.341 554.341,325.008C555.608,321.674 556.674,318.508 557.541,315.508L571.241,318.708C568.708,324.574 565.974,330.558 563.041,336.658C560.108,342.758 557.174,348.408 554.241,353.608C559.441,353.341 564.774,353.074 570.241,352.808C575.708,352.541 581.241,352.241 586.841,351.908C585.108,349.241 583.308,346.591 581.441,343.958C579.574,341.324 577.774,338.841 576.041,336.508L587.141,331.308Z" style="fill:rgb(31,188,29);fill-rule:nonzero;stroke:white;stroke-width:1px;"/>
        <path d="M622.841,284.408L704.341,284.408L704.341,370.008L693.241,370.008L693.241,366.608L633.541,366.608L633.541,370.008L622.841,370.008L622.841,284.408ZM693.241,356.408L693.241,294.608L633.541,294.608L633.541,356.408L693.241,356.408ZM634.541,345.208C638.541,344.074 642.458,342.641 646.291,340.908C650.124,339.174 653.574,337.241 656.641,335.108L641.641,335.108L641.641,318.808L685.741,318.808L685.741,333.608L690.541,336.708C689.008,337.908 687.391,339.058 685.691,340.158C683.991,341.258 682.341,342.274 680.741,343.208C682.474,344.074 684.308,344.841 686.241,345.508C688.174,346.174 690.108,346.741 692.041,347.208C691.108,348.074 690.058,349.208 688.891,350.608C687.724,352.008 686.874,353.274 686.341,354.408C682.808,353.274 679.391,351.774 676.091,349.908C672.791,348.041 669.741,345.941 666.941,343.608L666.941,354.308L657.041,354.308L657.041,344.408C651.708,347.608 646.274,350.241 640.741,352.308C640.474,351.841 640.074,351.291 639.541,350.658C639.008,350.024 638.458,349.374 637.891,348.708C637.324,348.041 636.741,347.391 636.141,346.758C635.541,346.124 635.008,345.608 634.541,345.208ZM658.141,309.508L658.141,305.908L641.241,305.908L641.241,299.808L658.141,299.808L658.141,295.708L668.441,295.708L668.441,299.808L686.041,299.808L686.041,305.908L668.441,305.908L668.441,309.508L689.941,309.508L689.941,315.908L636.741,315.908L636.741,309.508L658.141,309.508ZM651.141,329.408L675.741,329.408L675.741,324.608L651.141,324.608L651.141,329.408ZM669.041,335.408C669.774,336.141 670.574,336.858 671.441,337.558C672.308,338.258 673.241,338.941 674.241,339.608C676.308,338.274 678.374,336.774 680.441,335.108L669.241,335.108L669.041,335.408Z" style="fill:rgb(31,188,29);fill-rule:nonzero;stroke:white;stroke-width:1px;"/>
        <path d="M730.941,370.408C730.408,368.874 729.508,367.108 728.241,365.108C726.974,363.108 725.774,361.508 724.641,360.308C729.574,359.374 733.574,358.274 736.641,357.008C739.708,355.741 742.174,354.258 744.041,352.558C745.908,350.858 747.258,348.958 748.091,346.858C748.924,344.758 749.541,342.408 749.941,339.808L738.241,339.808L738.241,283.708L800.841,283.708L800.841,339.808L785.341,339.808L785.341,355.008C785.341,356.541 785.573,357.491 786.037,357.858C786.501,358.224 787.661,358.408 789.518,358.408L799.365,358.408C800.16,358.408 800.823,358.274 801.354,358.008C801.884,357.741 802.298,357.158 802.597,356.258C802.895,355.358 803.111,354.074 803.243,352.408C803.376,350.741 803.509,348.508 803.641,345.708C804.241,346.174 804.991,346.641 805.891,347.108C806.791,347.574 807.724,348.008 808.691,348.408C809.658,348.808 810.608,349.158 811.541,349.458C812.474,349.758 813.308,350.008 814.041,350.208C813.774,354.008 813.341,357.124 812.741,359.558C812.141,361.991 811.324,363.941 810.291,365.408C809.258,366.874 807.941,367.891 806.341,368.458C804.741,369.024 802.774,369.308 800.441,369.308L787.741,369.308C784.941,369.308 782.624,369.074 780.791,368.608C778.958,368.141 777.524,367.358 776.491,366.258C775.458,365.158 774.741,363.691 774.341,361.858C773.941,360.024 773.741,357.774 773.741,355.108L773.741,339.808L762.141,339.808C761.674,343.608 760.891,347.091 759.791,350.258C758.691,353.424 756.991,356.274 754.691,358.808C752.391,361.341 749.341,363.574 745.541,365.508C741.741,367.441 736.874,369.074 730.941,370.408ZM749.241,329.908L789.241,329.908L789.241,323.908L749.241,323.908L749.241,329.908ZM749.241,314.808L789.241,314.808L789.241,308.708L749.241,308.708L749.241,314.808ZM749.241,299.608L789.241,299.608L789.241,293.608L749.241,293.608L749.241,299.608Z" style="fill:rgb(31,188,29);fill-rule:nonzero;stroke:white;stroke-width:1px;"/>
        <path d="M821.341,296.108C823.208,296.041 824.974,295.974 826.641,295.908C828.308,295.841 829.608,295.741 830.541,295.608C832.541,295.408 834.974,295.191 837.841,294.958C840.708,294.724 843.908,294.441 847.441,294.108C850.974,293.774 854.774,293.441 858.841,293.108C862.908,292.774 867.108,292.408 871.441,292.008C876.308,291.608 881.141,291.274 885.941,291.008C890.741,290.741 894.808,290.541 898.141,290.408L898.241,302.608C896.974,302.608 895.558,302.624 893.991,302.658C892.424,302.691 890.808,302.741 889.141,302.808C887.474,302.874 885.858,302.991 884.291,303.158C882.724,303.324 881.308,303.574 880.041,303.908C877.174,304.641 874.524,305.908 872.091,307.708C869.658,309.508 867.541,311.624 865.741,314.058C863.941,316.491 862.541,319.108 861.541,321.908C860.541,324.708 860.041,327.508 860.041,330.308C860.041,334.174 860.891,337.474 862.591,340.208C864.291,342.941 866.541,345.158 869.341,346.858C872.141,348.558 875.391,349.841 879.091,350.708C882.791,351.574 886.641,352.108 890.641,352.308L886.241,365.408C881.241,365.074 876.424,364.158 871.791,362.658C867.158,361.158 863.058,359.058 859.491,356.358C855.924,353.658 853.058,350.358 850.891,346.458C848.724,342.558 847.641,338.041 847.641,332.908C847.641,329.508 848.074,326.308 848.941,323.308C849.808,320.308 850.908,317.558 852.241,315.058C853.574,312.558 855.058,310.358 856.691,308.458C858.324,306.558 859.941,305.008 861.541,303.808C859.541,304.008 856.891,304.291 853.591,304.658C850.291,305.024 846.791,305.424 843.091,305.858C839.391,306.291 835.708,306.791 832.041,307.358C828.374,307.924 825.174,308.508 822.441,309.108L821.341,296.108Z" style="fill:rgb(31,188,29);fill-rule:nonzero;stroke:white;stroke-width:1px;"/>
        <path d="M946.341,324.208C946.341,327.208 946.441,329.991 946.641,332.558C946.841,335.124 947.108,337.574 947.441,339.908C949.774,337.574 951.958,334.958 953.991,332.058C956.024,329.158 957.808,325.774 959.341,321.908C956.874,321.974 954.558,322.208 952.391,322.608C950.224,323.008 948.208,323.474 946.341,324.008L946.341,324.208ZM928.341,351.108C931.008,351.108 934.141,350.074 937.741,348.008C937.208,345.008 936.774,341.924 936.441,338.758C936.108,335.591 935.874,332.374 935.741,329.108C933.941,330.308 932.324,331.641 930.891,333.108C929.458,334.574 928.224,336.074 927.191,337.608C926.158,339.141 925.358,340.674 924.791,342.208C924.224,343.741 923.941,345.174 923.941,346.508C923.941,349.574 925.408,351.108 928.341,351.108ZM975.041,309.311C974.774,309.844 974.508,310.561 974.241,311.462C973.974,312.363 973.674,313.281 973.341,314.214C978.874,316.016 983.308,318.936 986.641,322.973C989.974,327.01 991.641,331.831 991.641,337.436C991.641,340.771 991.108,344.041 990.041,347.244C988.974,350.447 987.208,353.383 984.741,356.051C982.274,358.719 979.058,361.036 975.091,363.003C971.124,364.97 966.241,366.386 960.441,367.253L954.141,357.353C958.674,356.82 962.574,355.903 965.841,354.603C969.108,353.303 971.774,351.72 973.841,349.853C975.908,347.986 977.424,345.936 978.391,343.703C979.358,341.47 979.841,339.186 979.841,336.853C979.841,333.986 979.008,331.37 977.341,329.003C975.674,326.636 973.241,324.853 970.041,323.653C967.441,330.12 964.374,335.753 960.841,340.553C957.308,345.353 953.741,349.253 950.141,352.253C950.474,353.52 950.824,354.736 951.191,355.902C951.558,357.067 951.941,358.212 952.341,359.336L941.441,362.608C941.241,362.008 941.024,361.391 940.791,360.758C940.558,360.124 940.341,359.441 940.141,358.708C937.808,359.841 935.424,360.774 932.991,361.508C930.558,362.241 928.074,362.608 925.541,362.608C923.808,362.608 922.158,362.341 920.591,361.808C919.024,361.274 917.658,360.441 916.491,359.308C915.324,358.174 914.408,356.724 913.741,354.958C913.074,353.191 912.741,351.108 912.741,348.708C912.741,345.708 913.324,342.691 914.491,339.658C915.658,336.624 917.291,333.724 919.391,330.958C921.491,328.191 923.958,325.658 926.791,323.358C929.624,321.058 932.674,319.141 935.941,317.608C936.074,315.608 936.224,313.624 936.391,311.658C936.558,309.691 936.741,307.741 936.941,305.808L933.841,305.808C932.574,305.808 931.208,305.791 929.741,305.758C928.274,305.724 926.791,305.674 925.291,305.608C923.791,305.541 922.341,305.474 920.941,305.408C919.541,305.341 918.274,305.274 917.141,305.208L916.741,294.208C917.541,294.341 918.641,294.474 920.041,294.608C921.441,294.741 922.941,294.874 924.541,295.008C926.141,295.141 927.791,295.241 929.491,295.308C931.191,295.374 932.774,295.408 934.241,295.408L937.841,295.408L938.441,290.408C938.574,289.541 938.674,288.591 938.741,287.558C938.808,286.524 938.808,285.574 938.741,284.708L951.141,285.008C950.541,286.608 950.074,288.291 949.741,290.058C949.408,291.824 949.108,293.541 948.841,295.208C954.641,295.008 960.141,294.591 965.341,293.958C970.541,293.324 975.741,292.374 980.941,291.108L981.041,302.008C976.441,302.941 971.158,303.674 965.191,304.208C959.224,304.741 953.308,305.174 947.441,305.508C947.308,306.908 947.174,308.308 947.041,309.708C946.908,311.108 946.808,312.541 946.741,314.008C951.408,312.874 956.141,312.308 960.941,312.308L962.541,312.308C962.741,311.374 962.924,310.374 963.091,309.308C963.258,308.241 963.374,307.341 963.441,306.608L975.041,309.311Z" style="fill:rgb(31,188,29);fill-rule:nonzero;stroke:white;stroke-width:1px;"/>
        <path d="M1043.14,356.008C1045.21,356.008 1047.07,355.908 1048.74,355.708C1048.41,352.641 1047.42,350.174 1045.79,348.308C1044.16,346.441 1042.04,345.508 1039.44,345.508C1037.71,345.508 1036.31,345.958 1035.24,346.858C1034.17,347.758 1033.64,348.808 1033.64,350.008C1033.64,351.808 1034.52,353.258 1036.29,354.358C1038.06,355.458 1040.34,356.008 1043.14,356.008ZM1070.1,296.034C1068.96,296.77 1067.85,297.489 1066.75,298.191C1065.65,298.894 1064.56,299.613 1063.5,300.348C1062.23,301.218 1060.7,302.372 1058.9,303.811C1057.1,305.249 1055.25,306.755 1053.35,308.327C1051.45,309.898 1049.55,311.471 1047.65,313.043C1045.75,314.615 1044.07,316.004 1042.61,317.208C1044.13,316.741 1045.62,316.441 1047.05,316.308C1048.48,316.174 1049.96,316.108 1051.49,316.108C1055.48,316.108 1059.19,316.708 1062.62,317.908C1066.05,319.108 1069.04,320.758 1071.61,322.858C1074.17,324.958 1076.16,327.458 1077.6,330.358C1079.03,333.258 1079.74,336.441 1079.74,339.908C1079.74,343.641 1079.03,347.141 1077.6,350.408C1076.16,353.674 1074.04,356.508 1071.21,358.908C1068.38,361.308 1064.82,363.208 1060.53,364.608C1056.23,366.008 1051.22,366.708 1045.5,366.708C1042.24,366.708 1039.2,366.34 1036.37,365.604C1033.54,364.868 1031.09,363.815 1029.03,362.444C1026.97,361.073 1025.35,359.434 1024.19,357.528C1023.02,355.622 1022.44,353.498 1022.44,351.156C1022.44,349.217 1022.86,347.361 1023.69,345.588C1024.52,343.816 1025.68,342.244 1027.18,340.873C1028.68,339.501 1030.48,338.414 1032.57,337.612C1034.67,336.809 1036.95,336.408 1039.41,336.408C1042.34,336.408 1044.97,336.824 1047.3,337.658C1049.63,338.491 1051.64,339.624 1053.34,341.058C1055.04,342.491 1056.4,344.191 1057.43,346.158C1058.46,348.124 1059.18,350.241 1059.58,352.508C1064.75,349.708 1067.34,345.408 1067.34,339.608C1067.34,337.474 1066.84,335.549 1065.84,333.831C1064.84,332.113 1063.45,330.627 1061.68,329.372C1059.91,328.117 1057.82,327.159 1055.41,326.498C1053.01,325.838 1050.43,325.508 1047.7,325.508C1044.1,325.508 1040.76,325.974 1037.7,326.908C1034.63,327.841 1031.73,329.141 1029,330.808C1026.26,332.474 1023.65,334.491 1021.15,336.858C1018.65,339.224 1016.13,341.841 1013.6,344.708L1005,335.808C1006.66,334.408 1008.58,332.824 1010.75,331.058C1012.91,329.291 1015.1,327.491 1017.3,325.658C1019.5,323.824 1021.6,322.058 1023.6,320.358C1025.6,318.658 1027.3,317.241 1028.7,316.108C1030.03,314.974 1031.6,313.691 1033.4,312.258C1035.2,310.824 1037.01,309.341 1038.85,307.808C1040.68,306.274 1042.45,304.791 1044.15,303.358C1045.85,301.924 1047.3,300.708 1048.5,299.708C1047.3,299.708 1045.67,299.741 1043.6,299.808C1041.54,299.874 1039.37,299.958 1037.11,300.058C1034.84,300.158 1032.67,300.258 1030.61,300.358C1028.54,300.458 1026.87,300.574 1025.61,300.708C1024.34,300.774 1023.02,300.874 1021.65,301.008C1020.29,301.141 1019.04,301.308 1017.9,301.508L1017.5,289.008C1018.84,289.141 1020.27,289.258 1021.81,289.358C1023.34,289.458 1024.77,289.508 1026.11,289.508C1027.37,289.508 1029.42,289.474 1032.26,289.408C1035.09,289.341 1038.1,289.274 1041.3,289.208C1044.5,289.141 1047.53,289.041 1050.4,288.908C1053.26,288.774 1055.36,288.674 1056.7,288.608C1058.63,288.474 1060.18,288.308 1061.35,288.108C1062.51,287.908 1063.4,287.741 1064,287.608L1070.1,296.034Z" style="fill:rgb(31,188,29);fill-rule:nonzero;stroke:white;stroke-width:1px;"/>
        <path d="M1176.64,285.508L1176.64,331.808L1165.24,331.808L1165.24,327.108L1146.64,327.108L1146.64,353.808C1146.64,355.808 1146.96,357.074 1147.59,357.608C1148.22,358.141 1149.66,358.408 1151.92,358.408L1165.57,358.408C1166.63,358.408 1167.49,358.241 1168.15,357.908C1168.82,357.574 1169.33,356.891 1169.7,355.856C1170.06,354.822 1170.34,353.387 1170.54,351.553C1170.74,349.719 1170.94,347.3 1171.14,344.298C1172.41,345.232 1174.09,346.115 1176.19,346.949C1178.29,347.783 1180.11,348.367 1181.64,348.7C1181.31,352.702 1180.82,356.02 1180.19,358.654C1179.56,361.288 1178.67,363.388 1177.54,364.956C1176.41,366.524 1174.94,367.624 1173.14,368.258C1171.34,368.891 1169.07,369.208 1166.34,369.208L1150.64,369.208C1147.64,369.208 1145.14,368.974 1143.14,368.508C1141.14,368.041 1139.54,367.224 1138.34,366.058C1137.14,364.891 1136.29,363.324 1135.79,361.358C1135.29,359.391 1135.04,356.874 1135.04,353.808L1135.04,316.308L1165.24,316.308L1165.24,296.308L1134.84,296.308L1134.84,285.508L1176.64,285.508ZM1096.34,336.008L1126.94,336.008L1126.94,365.008L1106.14,365.008L1106.14,368.708L1096.34,368.708L1096.34,336.008ZM1092.04,296.508L1131.14,296.408L1131.14,305.508L1092.04,305.508L1092.04,296.508ZM1127.24,309.808L1127.24,318.508L1096.54,318.508L1096.54,309.808L1127.24,309.808ZM1097.14,283.708L1127.54,283.708L1127.54,292.308L1097.14,292.308L1097.14,283.708ZM1096.54,331.408L1096.54,323.008L1127.24,323.008L1127.24,331.408L1096.54,331.408ZM1106.14,356.108L1117.04,356.108L1117.04,345.108L1106.14,345.108L1106.14,356.108Z" style="fill:rgb(31,188,29);fill-rule:nonzero;stroke:white;stroke-width:1px;"/>
    </g>
    <defs>
        <linearGradient id="_Linear1" x1="0" y1="0" x2="1" y2="0" gradientUnits="userSpaceOnUse" gradientTransform="matrix(220,0,0,69,83,684.5)"><stop offset="0" style="stop-color:rgb(240,200,45);stop-opacity:1"/><stop offset="0.5" style="stop-color:rgb(236,236,88);stop-opacity:1"/><stop offset="1" style="stop-color:rgb(240,200,45);stop-opacity:1"/></linearGradient>
        <linearGradient id="_Linear2" x1="0" y1="0" x2="1" y2="0" gradientUnits="userSpaceOnUse" gradientTransform="matrix(220,0,0,69,83,684.5)"><stop offset="0" style="stop-color:rgb(240,200,45);stop-opacity:1"/><stop offset="0.5" style="stop-color:rgb(236,236,88);stop-opacity:1"/><stop offset="1" style="stop-color:rgb(240,200,45);stop-opacity:1"/></linearGradient>
        <linearGradient id="_Linear3" x1="0" y1="0" x2="1" y2="0" gradientUnits="userSpaceOnUse" gradientTransform="matrix(216,0,0,48,181,508)"><stop offset="0" style="stop-color:rgb(240,200,45);stop-opacity:1"/><stop offset="0.5" style="stop-color:rgb(236,236,88);stop-opacity:1"/><stop offset="1" style="stop-color:rgb(240,200,45);stop-opacity:1"/></linearGradient>
    </defs>
</svg>
